# This file uses centimeters as units for non-parametric coordinates.

mtllib streetlight.mtl
g default
v 0.722042 -46.242329 -0.722042
v -0.722042 -46.242329 -0.722042
v 0.722042 -46.242329 0.722042
v -0.722042 -46.242329 0.722042
v 0.722042 -20.084234 -0.722042
v -0.722042 -20.084234 -0.722042
v -0.722042 -20.084238 0.722042
v 0.722042 -20.084238 0.722042
v 0.722042 -48.095871 -0.722042
v -0.722042 -48.095871 -0.722042
v -0.722042 -48.095871 0.722042
v 0.722042 -48.095871 0.722042
v 4.979300 -46.242329 -4.979300
v -4.979300 -46.242329 -4.979300
v -4.979300 -48.095871 -4.979300
v 4.979300 -48.095871 -4.979300
v -4.979300 -46.242329 4.979300
v -4.979300 -48.095871 4.979300
v 4.979300 -46.242329 4.979300
v 4.979300 -48.095871 4.979300
v 1.869968 -9.748314 -1.869968
v -1.869968 -9.748314 -1.869968
v -1.869968 -20.084234 -1.869968
v 1.869968 -20.084234 -1.869968
v -1.869968 -9.748314 1.869968
v -1.869968 -20.084238 1.869968
v 1.869968 -20.084238 1.869968
v 1.869968 -9.748314 1.869968
v -1.869968 -11.411985 -1.869968
v -1.869968 -11.411985 1.869968
v 1.869968 -11.411985 1.869968
v 1.869968 -11.411985 -1.869968
v -1.869968 -17.740086 1.869968
v -1.869968 -17.740080 -1.869968
v 1.869968 -17.740080 -1.869968
v 1.869968 -17.740086 1.869968
v 1.438918 -11.411985 -1.438918
v -1.438918 -11.411985 -1.438918
v -1.438918 -17.740080 -1.438918
v 1.438918 -17.740080 -1.438918
v -1.438918 -11.411985 1.438918
v -1.438918 -17.740086 1.438918
v 1.438918 -17.740086 1.438918
v 1.438918 -11.411985 1.438918
v -1.438918 -14.085302 -1.438918
v -1.438918 -14.085306 1.438918
v 1.438918 -14.085306 1.438918
v 1.438918 -14.085302 -1.438918
v -1.438918 -15.215523 1.438918
v -1.438918 -15.215519 -1.438918
v 1.438918 -15.215519 -1.438918
v 1.438918 -15.215523 1.438918
v 1.682619 -14.085302 -1.682619
v -1.682619 -14.085302 -1.682619
v -1.682619 -15.215519 -1.682619
v 1.682619 -15.215519 -1.682619
v -1.682619 -14.085306 1.682619
v -1.682619 -15.215523 1.682619
v 1.682619 -15.215523 1.682619
v 1.682619 -14.085306 1.682619
vt 0.100397 0.770728
vt 0.100397 0.001992
vt 0.142836 0.001992
vt 0.142836 0.770728
vt 0.149573 0.770728
vt 0.149573 0.001992
vt 0.192012 0.001992
vt 0.192012 0.770728
vt 0.425028 0.510924
vt 0.391813 0.510924
vt 0.391813 0.412026
vt 0.425028 0.412026
vt 0.613850 0.294656
vt 0.559378 0.294656
vt 0.559378 0.001992
vt 0.613850 0.001992
vt 0.737702 0.294656
vt 0.683230 0.294656
vt 0.683230 0.001992
vt 0.737702 0.001992
vt 0.471953 0.412026
vt 0.505168 0.412026
vt 0.505168 0.510924
vt 0.471953 0.510924
vt 0.518626 0.408296
vt 0.469734 0.408296
vt 0.469734 0.298386
vt 0.518626 0.298386
vt 0.360483 0.298386
vt 0.409375 0.298386
vt 0.409375 0.408296
vt 0.360483 0.408296
vt 0.300123 0.408296
vt 0.231233 0.408296
vt 0.231233 0.298386
vt 0.300123 0.298386
vt 0.081985 0.774459
vt 0.150876 0.774459
vt 0.150876 0.884368
vt 0.081985 0.884368
vt 0.801863 0.679355
vt 0.723299 0.679355
vt 0.723299 0.594781
vt 0.801863 0.594781
vt 0.854104 0.683085
vt 0.932667 0.683085
vt 0.932667 0.767659
vt 0.854103 0.767659
vt 0.764073 0.781983
vt 0.689880 0.781983
vt 0.689880 0.697409
vt 0.764072 0.697409
vt 0.530029 0.514654
vt 0.604221 0.514654
vt 0.604221 0.599228
vt 0.530029 0.599228
vt 0.366301 0.127105
vt 0.366301 0.169544
vt 0.323862 0.169544
vt 0.323862 0.127105
vt 0.491414 0.001992
vt 0.491414 0.294656
vt 0.198750 0.294656
vt 0.198750 0.001992
vt 0.807555 0.465938
vt 0.932667 0.591051
vt 0.640003 0.591051
vt 0.765116 0.465938
vt 0.807555 0.423499
vt 0.932667 0.298386
vt 0.640003 0.298386
vt 0.765116 0.423499
vt 0.558095 0.332122
vt 0.524360 0.298386
vt 0.634270 0.298386
vt 0.600534 0.332122
vt 0.558095 0.374561
vt 0.524360 0.408296
vt 0.634270 0.408296
vt 0.600534 0.374561
vt 0.111771 0.888098
vt 0.099103 0.900766
vt 0.014529 0.900766
vt 0.001862 0.888098
vt 0.111771 0.998008
vt 0.099103 0.985340
vt 0.014529 0.985340
vt 0.001862 0.998008
vt 0.228520 0.998008
vt 0.215852 0.985340
vt 0.215852 0.900766
vt 0.228520 0.888098
vt 0.118610 0.998008
vt 0.131278 0.985340
vt 0.131278 0.900766
vt 0.118610 0.888098
vt 0.345086 0.521936
vt 0.235177 0.521936
vt 0.235177 0.412026
vt 0.345086 0.412026
vt 0.603758 0.419188
vt 0.610920 0.412026
vt 0.610920 0.510924
vt 0.603758 0.503762
vt 0.519184 0.419188
vt 0.512022 0.412026
vt 0.512022 0.510924
vt 0.519184 0.503762
vt 0.624823 0.601943
vt 0.617661 0.594781
vt 0.716559 0.594781
vt 0.709397 0.601943
vt 0.624823 0.686517
vt 0.617661 0.693679
vt 0.716559 0.693679
vt 0.709397 0.686517
vt 0.044300 0.001992
vt 0.044300 0.770728
vt 0.001862 0.770728
vt 0.001862 0.001992
vt 0.093659 0.001992
vt 0.093659 0.770728
vt 0.051220 0.770728
vt 0.051220 0.001992
vt 0.351743 0.412026
vt 0.384958 0.412026
vt 0.384958 0.510924
vt 0.351743 0.510924
vt 0.431883 0.412026
vt 0.465098 0.412026
vt 0.465098 0.510924
vt 0.431883 0.510924
vt 0.497452 0.001992
vt 0.551924 0.001992
vt 0.551924 0.294656
vt 0.497452 0.294656
vt 0.675776 0.294656
vt 0.621303 0.294656
vt 0.621303 0.001992
vt 0.675776 0.001992
vt 0.415109 0.298386
vt 0.464001 0.298386
vt 0.464001 0.408296
vt 0.415109 0.408296
vt 0.305857 0.298386
vt 0.354749 0.298386
vt 0.354749 0.408296
vt 0.305857 0.408296
vt 0.156609 0.774458
vt 0.225499 0.774458
vt 0.225499 0.884368
vt 0.156609 0.884368
vt 0.007362 0.774458
vt 0.076252 0.774458
vt 0.076252 0.884368
vt 0.007362 0.884368
vt 0.808903 0.594781
vt 0.887467 0.594781
vt 0.887467 0.679355
vt 0.808903 0.679355
vt 0.769806 0.683085
vt 0.848370 0.683085
vt 0.848370 0.767659
vt 0.769806 0.767659
vt 0.609955 0.697409
vt 0.684147 0.697409
vt 0.684147 0.781983
vt 0.609955 0.781983
vt 0.450103 0.514654
vt 0.524295 0.514654
vt 0.524295 0.599228
vt 0.450103 0.599228
vn 0.000000 0.000000 -1.000000
vn 0.000000 0.000000 -1.000000
vn 0.000000 0.000000 -1.000000
vn 0.000000 0.000000 -1.000000
vn 0.000000 -1.000000 0.000000
vn 0.000000 -1.000000 0.000000
vn 0.000000 -1.000000 0.000000
vn 0.000000 -1.000000 0.000000
vn 0.000000 0.000000 1.000000
vn 0.000000 0.000000 1.000000
vn 0.000000 0.000000 1.000000
vn 0.000000 0.000000 1.000000
vn -1.000000 0.000000 0.000000
vn -1.000000 0.000000 0.000000
vn -1.000000 0.000000 0.000000
vn -1.000000 0.000000 0.000000
vn 1.000000 0.000000 0.000000
vn 1.000000 0.000000 0.000000
vn 1.000000 0.000000 0.000000
vn 1.000000 0.000000 0.000000
vn 0.000000 0.000000 -1.000000
vn 0.000000 0.000000 -1.000000
vn 0.000000 0.000000 -1.000000
vn 0.000000 0.000000 -1.000000
vn -1.000000 0.000000 0.000000
vn -1.000000 0.000000 0.000000
vn -1.000000 0.000000 0.000000
vn -1.000000 0.000000 0.000000
vn 0.000000 0.000000 1.000000
vn 0.000000 0.000000 1.000000
vn 0.000000 0.000000 1.000000
vn 0.000000 0.000000 1.000000
vn 0.000000 0.000000 -1.000000
vn 0.000000 0.000000 -1.000000
vn 0.000000 0.000000 -1.000000
vn 0.000000 0.000000 -1.000000
vn -1.000000 0.000000 0.000000
vn -1.000000 0.000000 0.000000
vn -1.000000 0.000000 0.000000
vn -1.000000 0.000000 0.000000
vn 0.000000 0.000000 1.000000
vn 0.000000 0.000000 1.000000
vn 0.000000 0.000000 1.000000
vn 0.000000 0.000000 1.000000
vn 1.000000 0.000000 0.000000
vn 1.000000 0.000000 0.000000
vn 1.000000 0.000000 0.000000
vn 1.000000 0.000000 0.000000
vn 0.000000 1.000000 0.000000
vn 0.000000 1.000000 0.000000
vn 0.000000 1.000000 0.000000
vn 0.000000 1.000000 0.000000
vn 0.000000 -1.000000 0.000000
vn 0.000000 -1.000000 0.000000
vn 0.000000 -1.000000 0.000000
vn 0.000000 -1.000000 0.000000
vn 0.000000 1.000000 0.000000
vn 0.000000 1.000000 0.000000
vn 0.000000 1.000000 0.000000
vn 0.000000 1.000000 0.000000
vn 0.000000 -1.000000 0.000000
vn 0.000000 -1.000000 0.000000
vn 0.000000 -1.000000 0.000000
vn 0.000000 -1.000000 0.000000
vn 0.000000 1.000000 0.000000
vn 0.000000 1.000000 0.000000
vn 0.000000 1.000000 0.000000
vn 0.000000 1.000000 0.000000
vn 0.000000 -1.000000 -0.000000
vn 0.000000 -1.000000 -0.000000
vn 0.000000 -1.000000 -0.000000
vn 0.000000 -1.000000 -0.000000
vn 0.000000 1.000000 0.000000
vn 0.000000 1.000000 0.000000
vn 0.000000 1.000000 0.000000
vn 0.000000 1.000000 0.000000
vn 0.000000 -1.000000 0.000000
vn 0.000000 -1.000000 0.000000
vn 0.000000 -1.000000 0.000000
vn 0.000000 -1.000000 0.000000
vn 1.000000 0.000000 0.000000
vn 1.000000 0.000000 0.000000
vn 1.000000 0.000000 0.000000
vn 1.000000 0.000000 0.000000
vn 0.000000 -1.000000 0.000000
vn 0.000000 -1.000000 0.000000
vn 0.000000 -1.000000 0.000000
vn 0.000000 -1.000000 0.000000
vn 0.000000 -1.000000 -0.000001
vn 0.000000 -1.000000 -0.000001
vn 0.000000 -1.000000 -0.000001
vn 0.000000 -1.000000 -0.000001
vn 0.000000 -1.000000 -0.000001
vn 0.000000 -1.000000 -0.000001
vn 0.000000 -1.000000 -0.000001
vn 0.000000 -1.000000 -0.000001
vn 0.000000 -1.000000 -0.000001
vn 0.000000 -1.000000 -0.000001
vn 0.000000 -1.000000 -0.000001
vn 0.000000 -1.000000 -0.000001
vn -1.000000 0.000000 0.000000
vn -1.000000 0.000000 0.000000
vn -1.000000 0.000000 0.000000
vn -1.000000 0.000000 0.000000
vn 0.000000 0.000000 1.000000
vn 0.000000 0.000000 1.000000
vn 0.000000 0.000000 1.000000
vn 0.000000 0.000000 1.000000
vn 1.000000 0.000000 0.000000
vn 1.000000 0.000000 0.000000
vn 1.000000 0.000000 0.000000
vn 1.000000 0.000000 0.000000
vn 0.000000 0.000000 -1.000000
vn 0.000000 0.000000 -1.000000
vn 0.000000 0.000000 -1.000000
vn 0.000000 0.000000 -1.000000
vn -1.000000 0.000000 0.000000
vn -1.000000 0.000000 0.000000
vn -1.000000 0.000000 0.000000
vn -1.000000 0.000000 0.000000
vn 0.000000 0.000000 -1.000000
vn 0.000000 0.000000 -1.000000
vn 0.000000 0.000000 -1.000000
vn 0.000000 0.000000 -1.000000
vn 1.000000 0.000000 0.000000
vn 1.000000 0.000000 0.000000
vn 1.000000 0.000000 0.000000
vn 1.000000 0.000000 0.000000
vn 0.000000 0.000000 1.000000
vn 0.000000 0.000000 1.000000
vn 0.000000 0.000000 1.000000
vn 0.000000 0.000000 1.000000
vn 0.000000 -1.000000 0.000000
vn 0.000000 -1.000000 0.000000
vn 0.000000 -1.000000 0.000000
vn 0.000000 -1.000000 0.000000
vn 0.000000 1.000000 0.000000
vn 0.000000 1.000000 0.000000
vn 0.000000 1.000000 0.000000
vn 0.000000 1.000000 0.000000
vn 0.000000 -1.000000 0.000000
vn 0.000000 -1.000000 0.000000
vn 0.000000 -1.000000 0.000000
vn 0.000000 -1.000000 0.000000
vn 0.000000 1.000000 0.000002
vn 0.000000 1.000000 0.000002
vn 0.000000 1.000000 0.000002
vn 0.000000 1.000000 0.000002
vn 0.000000 1.000000 0.000005
vn 0.000000 1.000000 0.000005
vn 0.000000 1.000000 0.000005
vn 0.000000 1.000000 0.000005
vn 0.000000 -1.000000 0.000000
vn 0.000000 -1.000000 0.000000
vn 0.000000 -1.000000 0.000000
vn 0.000000 -1.000000 0.000000
vn 0.000000 1.000000 0.000002
vn 0.000000 1.000000 0.000002
vn 0.000000 1.000000 0.000002
vn 0.000000 1.000000 0.000002
vn 0.000000 -1.000000 0.000000
vn 0.000000 -1.000000 0.000000
vn 0.000000 -1.000000 0.000000
vn 0.000000 -1.000000 0.000000
vn 0.000000 1.000000 0.000000
vn 0.000000 1.000000 0.000000
vn 0.000000 1.000000 0.000000
vn 0.000000 1.000000 0.000000
vn -1.000000 0.000000 0.000000
vn -1.000000 0.000000 0.000000
vn -1.000000 0.000000 0.000000
vn -1.000000 0.000000 0.000000
vn 0.000000 0.000000 1.000000
vn 0.000000 0.000000 1.000000
vn 0.000000 0.000000 1.000000
vn 0.000000 0.000000 1.000000
vn 1.000000 0.000000 0.000000
vn 1.000000 0.000000 0.000000
vn 1.000000 0.000000 0.000000
vn 1.000000 0.000000 0.000000
vn 0.000000 0.000000 -1.000000
vn 0.000000 0.000000 -1.000000
vn 0.000000 0.000000 -1.000000
vn 0.000000 0.000000 -1.000000
vn -1.000000 0.000000 0.000000
vn -1.000000 0.000000 0.000000
vn -1.000000 0.000000 0.000000
vn -1.000000 0.000000 0.000000
vn 0.000000 0.000000 -1.000000
vn 0.000000 0.000000 -1.000000
vn 0.000000 0.000000 -1.000000
vn 0.000000 0.000000 -1.000000
vn 1.000000 0.000000 0.000000
vn 1.000000 0.000000 0.000000
vn 1.000000 0.000000 0.000000
vn 1.000000 0.000000 0.000000
vn 0.000000 0.000000 1.000000
vn 0.000000 0.000000 1.000000
vn 0.000000 0.000000 1.000000
vn 0.000000 0.000000 1.000000
vn 0.000000 1.000000 0.000000
vn 0.000000 1.000000 0.000000
vn 0.000000 1.000000 0.000000
vn 0.000000 1.000000 0.000000
vn 0.000000 -1.000000 -0.000005
vn 0.000000 -1.000000 -0.000005
vn 0.000000 -1.000000 -0.000005
vn 0.000000 -1.000000 -0.000005
vn 0.000000 1.000000 0.000001
vn 0.000000 1.000000 0.000001
vn 0.000000 1.000000 0.000001
vn 0.000000 1.000000 0.000001
vn 0.000000 -1.000000 -0.000001
vn 0.000000 -1.000000 -0.000001
vn 0.000000 -1.000000 -0.000001
vn 0.000000 -1.000000 -0.000001
vn 0.000000 -1.000000 0.000005
vn 0.000000 -1.000000 0.000005
vn 0.000000 -1.000000 0.000005
vn 0.000000 -1.000000 0.000005
vn 0.000000 1.000000 0.000000
vn 0.000000 1.000000 0.000000
vn 0.000000 1.000000 0.000000
vn 0.000000 1.000000 0.000000
vn 0.000000 -1.000000 -0.000001
vn 0.000000 -1.000000 -0.000001
vn 0.000000 -1.000000 -0.000001
vn 0.000000 -1.000000 -0.000001
vn 0.000000 1.000000 0.000001
vn 0.000000 1.000000 0.000001
vn 0.000000 1.000000 0.000001
vn 0.000000 1.000000 0.000001
s off
g lightbulb
usemtl initialShadingGroup
f 5/117/1 1/118/2 2/119/3 6/120/4
f 9/57/5 12/58/6 11/59/7 10/60/8
f 3/121/9 8/122/10 7/123/11 4/124/12
f 6/1/13 2/2/14 4/3/15 7/4/16
f 8/5/17 3/6/18 1/7/19 5/8/20
f 53/125/21 56/126/22 55/127/23 54/128/24
f 54/9/25 55/10/26 58/11/27 57/12/28
f 59/129/29 60/130/30 57/131/31 58/132/32
f 13/133/33 16/134/34 15/135/35 14/136/36
f 14/13/37 15/14/38 18/15/39 17/16/40
f 17/137/41 18/138/42 20/139/43 19/140/44
f 19/17/45 20/18/46 16/19/47 13/20/48
f 1/65/49 13/66/50 14/67/51 2/68/52
f 10/60/53 15/64/54 16/61/55 9/57/56
f 2/68/57 14/67/58 17/71/59 4/72/60
f 11/59/61 18/63/62 15/64/63 10/60/64
f 4/72/65 17/71/66 19/70/67 3/69/68
f 12/58/69 20/62/70 18/63/71 11/59/72
f 3/69/73 19/70/74 13/66/75 1/65/76
f 9/57/77 16/61/78 20/62/79 12/58/80
f 56/21/81 53/22/82 60/23/83 59/24/84
f 6/73/85 23/74/86 24/75/87 5/76/88
f 7/77/89 26/78/90 23/74/91 6/73/92
f 8/80/93 27/79/94 26/78/95 7/77/96
f 5/76/97 24/75/98 27/79/99 8/80/100
f 22/25/101 29/26/102 30/27/103 25/28/104
f 31/141/105 28/142/106 25/143/107 30/144/108
f 32/29/109 21/30/110 28/31/111 31/32/112
f 21/145/113 32/146/114 29/147/115 22/148/116
f 34/33/117 23/34/118 26/35/119 33/36/120
f 35/149/121 24/150/122 23/151/123 34/152/124
f 24/37/125 35/38/126 36/39/127 27/40/128
f 27/153/129 36/154/130 33/155/131 26/156/132
f 32/81/133 37/82/134 38/83/135 29/84/136
f 34/89/137 39/90/138 40/91/139 35/92/140
f 29/84/141 38/83/142 41/87/143 30/88/144
f 33/93/145 42/94/146 39/90/147 34/89/148
f 36/96/149 43/95/150 42/94/151 33/93/152
f 30/88/153 41/87/154 44/86/155 31/85/156
f 35/92/157 40/91/158 43/95/159 36/96/160
f 31/85/161 44/86/162 37/82/163 32/81/164
f 22/97/165 25/98/166 28/99/167 21/100/168
f 38/41/169 45/42/170 46/43/171 41/44/172
f 47/157/173 44/158/174 41/159/175 46/160/176
f 48/45/177 37/46/178 44/47/179 47/48/180
f 37/161/181 48/162/182 45/163/183 38/164/184
f 50/49/185 39/50/186 42/51/187 49/52/188
f 51/165/189 40/166/190 39/167/191 50/168/192
f 40/53/193 51/54/194 52/55/195 43/56/196
f 43/169/197 52/170/198 49/171/199 42/172/200
f 48/101/201 53/102/202 54/103/203 45/104/204
f 50/109/205 55/110/206 56/111/207 51/112/208
f 45/104/209 54/103/210 57/107/211 46/108/212
f 49/113/213 58/114/214 55/110/215 50/109/216
f 52/116/217 59/115/218 58/114/219 49/113/220
f 46/108/221 57/107/222 60/106/223 47/105/224
f 51/112/225 56/111/226 59/115/227 52/116/228
f 47/105/229 60/106/230 53/102/231 48/101/232
