# This file uses centimeters as units for non-parametric coordinates.

mtllib building3.mtl
g default
v 41994.679688 -12171.109375 8159.519531
v 56653.546875 -12171.109375 8159.519531
v 41994.679688 2487.759277 8159.519531
v 56653.546875 2487.759277 8159.519531
v 41994.679688 2487.759277 -6499.350586
v 56653.546875 2487.759277 -6499.350586
v 41994.679688 -12171.109375 -6499.350586
v 56653.546875 -12171.109375 -6499.350586
v 42842.484375 2487.759277 7311.725586
v 55805.757813 2487.759277 7311.725586
v 55805.757813 2487.759277 -5651.556152
v 42842.484375 2487.759277 -5651.556152
v 42842.484375 5071.802734 7311.725586
v 55805.757813 5071.802734 7311.725586
v 55805.757813 5071.802734 -5651.556152
v 42842.484375 5071.802734 -5651.556152
v 41887.058594 5071.802734 8267.155273
v 56761.191406 5071.802734 8267.155273
v 56761.191406 5071.802734 -6606.986328
v 41887.058594 5071.802734 -6606.986328
v 41887.058594 17404.474609 8267.155273
v 56761.191406 17404.474609 8267.155273
v 56761.191406 17404.474609 -6606.986328
v 41887.058594 17404.474609 -6606.986328
v 42768.617188 17404.474609 7385.611816
v 55879.656250 17404.474609 7385.611816
v 55879.656250 17404.474609 -5725.442871
v 42768.617188 17404.474609 -5725.442871
v 42768.617188 19675.179688 7385.611816
v 55879.656250 19675.179688 7385.611816
v 55879.656250 19675.179688 -5725.442871
v 42768.617188 19675.179688 -5725.442871
v 48672.562500 19675.179688 5176.734375
v 53741.195313 19675.179688 5176.734375
v 53741.195313 19675.179688 -1534.916016
v 48672.562500 19675.179688 -1534.916016
v 48672.562500 23633.396484 5176.734375
v 53741.195313 23633.396484 5176.734375
v 53741.195313 23633.396484 -1534.916016
v 48672.562500 23633.396484 -1534.916016
v 52019.210938 23633.396484 3969.314209
v 52404.972656 23633.396484 3969.314209
v 52404.972656 23633.396484 3383.651611
v 52019.210938 23633.396484 3383.651611
v 52019.210938 33057.378906 3969.314209
v 52404.972656 33057.378906 3969.314209
v 52404.972656 33057.378906 3383.651611
v 52019.210938 33057.378906 3383.651611
v 48278.628906 7049.120117 -6884.759277
v 48278.628906 7049.120117 9300.366211
v 48278.628906 15343.700195 -6884.759277
v 48278.628906 15343.700195 9300.366211
v 50189.644531 15343.700195 -6884.759277
v 50189.644531 15343.700195 9300.366211
v 50189.644531 7049.120117 -6884.759277
v 50189.644531 7049.120117 9300.366211
v 41743.207031 7049.120117 2163.312500
v 56885.488281 7049.120117 2163.312256
v 41743.207031 15343.700195 2163.312500
v 56885.488281 15343.700195 2163.312256
v 41743.207031 15343.700195 252.294312
v 56885.488281 15343.700195 252.294373
v 41743.207031 7049.120117 252.294312
v 56885.488281 7049.120117 252.294373
vt 0.657150 0.652926
vt 0.657150 0.441893
vt 0.868183 0.441893
vt 0.868183 0.652926
vt 0.761195 0.867847
vt 0.761195 0.656814
vt 0.972228 0.656814
vt 0.972228 0.867847
vt 0.108439 0.858450
vt 0.108439 0.671827
vt 0.145639 0.671827
vt 0.145639 0.858450
vt 0.022084 0.858450
vt 0.022084 0.671827
vt 0.059285 0.671827
vt 0.059285 0.858450
vt 0.611162 0.438004
vt 0.611162 0.223873
vt 0.788707 0.223873
vt 0.788707 0.438004
vt 0.244120 0.453018
vt 0.244120 0.238886
vt 0.421665 0.238886
vt 0.421665 0.453018
vt 0.466853 0.845564
vt 0.466853 0.656814
vt 0.499542 0.656814
vt 0.499542 0.845564
vt 0.389520 0.860577
vt 0.389520 0.671827
vt 0.422209 0.671827
vt 0.422209 0.860577
vt 0.182498 0.961088
vt 0.182498 0.864466
vt 0.239482 0.864466
vt 0.239482 0.961088
vt 0.247051 0.961088
vt 0.247051 0.864466
vt 0.304034 0.864466
vt 0.304034 0.961088
vt 0.001941 0.811385
vt 0.010372 0.811385
vt 0.010372 0.947055
vt 0.001941 0.947055
vt 0.030610 0.862338
vt 0.039041 0.862338
vt 0.039041 0.998008
vt 0.030610 0.998008
vt 0.001941 0.234997
vt 0.001941 0.001992
vt 0.121351 0.001992
vt 0.121351 0.234997
vt 0.281024 0.001992
vt 0.281024 0.234997
vt 0.161613 0.234997
vt 0.161613 0.001992
vt 0.114148 0.862338
vt 0.141660 0.862338
vt 0.141660 0.981749
vt 0.114148 0.981749
vt 0.148323 0.862338
vt 0.175835 0.862338
vt 0.175835 0.981749
vt 0.148323 0.981749
vt 0.520450 0.849452
vt 0.526004 0.849452
vt 0.526004 0.857884
vt 0.520450 0.857884
vt 0.438810 0.441893
vt 0.649843 0.441893
vt 0.649843 0.652926
vt 0.438810 0.652926
vt 0.544185 0.656814
vt 0.755218 0.656814
vt 0.743013 0.669019
vt 0.556391 0.669019
vt 0.755218 0.867847
vt 0.743013 0.855642
vt 0.544185 0.867847
vt 0.556391 0.855642
vt 0.659513 0.202369
vt 0.846135 0.202369
vt 0.859890 0.216124
vt 0.645758 0.216124
vt 0.846135 0.015747
vt 0.859890 0.001992
vt 0.659513 0.015747
vt 0.645758 0.001992
vt 0.024012 0.238886
vt 0.238144 0.238886
vt 0.225453 0.251577
vt 0.036703 0.251577
vt 0.238144 0.453018
vt 0.225453 0.440327
vt 0.024012 0.453018
vt 0.036703 0.440327
vt 0.194793 0.671827
vt 0.383543 0.671827
vt 0.352757 0.703627
vt 0.279788 0.703627
vt 0.383543 0.860577
vt 0.352757 0.800249
vt 0.194793 0.860577
vt 0.279788 0.800249
vt 0.311603 0.864465
vt 0.384573 0.864466
vt 0.365336 0.881848
vt 0.359783 0.881848
vt 0.384573 0.961088
vt 0.365336 0.890279
vt 0.311603 0.961088
vt 0.359783 0.890279
vt 0.127438 0.234997
vt 0.127439 0.001992
vt 0.154950 0.001992
vt 0.154950 0.234997
vt 0.316332 0.001992
vt 0.316332 0.234997
vt 0.288820 0.234997
vt 0.288820 0.001992
vt 0.450202 0.219984
vt 0.450202 0.001992
vt 0.477713 0.001992
vt 0.477713 0.219984
vt 0.611583 0.219984
vt 0.611583 0.001992
vt 0.639095 0.001992
vt 0.639095 0.219984
vt 0.001941 0.667939
vt 0.001941 0.456906
vt 0.212973 0.456906
vt 0.212973 0.667939
vt 0.220470 0.456906
vt 0.431503 0.456906
vt 0.431503 0.667939
vt 0.220470 0.667939
vt 0.151616 0.858450
vt 0.151616 0.671827
vt 0.188816 0.671827
vt 0.188816 0.858450
vt 0.102462 0.671827
vt 0.102462 0.858450
vt 0.065261 0.858450
vt 0.065261 0.671827
vt 0.794683 0.434144
vt 0.794683 0.220012
vt 0.972228 0.220012
vt 0.972228 0.434144
vt 0.605186 0.223873
vt 0.605186 0.438005
vt 0.427641 0.438005
vt 0.427641 0.223873
vt 0.505519 0.845564
vt 0.505519 0.656814
vt 0.538209 0.656814
vt 0.538209 0.845564
vt 0.460876 0.671827
vt 0.460876 0.860577
vt 0.428186 0.860577
vt 0.428186 0.671827
vt 0.391345 0.937435
vt 0.391345 0.864466
vt 0.448328 0.864466
vt 0.448328 0.937435
vt 0.512881 0.864465
vt 0.512881 0.937435
vt 0.455898 0.937435
vt 0.455898 0.864465
vt 0.010554 0.671827
vt 0.016107 0.671827
vt 0.016107 0.807497
vt 0.010554 0.807497
vt 0.022873 0.998008
vt 0.017319 0.998008
vt 0.017319 0.862338
vt 0.022873 0.862338
vt 0.045798 0.862338
vt 0.073310 0.862338
vt 0.073310 0.981749
vt 0.045798 0.981749
vt 0.107485 0.981749
vt 0.079973 0.981749
vt 0.079973 0.862338
vt 0.107485 0.862338
vt 0.322995 0.219984
vt 0.322995 0.001992
vt 0.442406 0.001992
vt 0.442406 0.219984
vt 0.484377 0.219984
vt 0.484377 0.001992
vt 0.603788 0.001992
vt 0.603788 0.219984
vn 0.000000 0.000000 1.000000
vn 0.000000 0.000000 1.000000
vn 0.000000 0.000000 1.000000
vn 0.000000 0.000000 1.000000
vn 0.000000 1.000000 0.000000
vn 0.000000 1.000000 0.000000
vn 0.000000 1.000000 0.000000
vn 0.000000 1.000000 0.000000
vn 0.000000 0.000000 -1.000000
vn 0.000000 0.000000 -1.000000
vn 0.000000 0.000000 -1.000000
vn 0.000000 0.000000 -1.000000
vn 0.000000 -1.000000 0.000000
vn 0.000000 -1.000000 0.000000
vn 0.000000 -1.000000 0.000000
vn 0.000000 -1.000000 0.000000
vn 1.000000 0.000000 0.000000
vn 1.000000 0.000000 0.000000
vn 1.000000 0.000000 0.000000
vn 1.000000 0.000000 0.000000
vn -1.000000 0.000000 0.000000
vn -1.000000 0.000000 0.000000
vn -1.000000 0.000000 0.000000
vn -1.000000 0.000000 0.000000
vn 0.000000 1.000000 0.000000
vn 0.000000 1.000000 0.000000
vn 0.000000 1.000000 0.000000
vn 0.000000 1.000000 0.000000
vn 0.000000 1.000000 0.000000
vn 0.000000 1.000000 0.000000
vn 0.000000 1.000000 0.000000
vn 0.000000 1.000000 0.000000
vn 0.000000 1.000000 0.000000
vn 0.000000 1.000000 0.000000
vn 0.000000 1.000000 0.000000
vn 0.000000 1.000000 0.000000
vn 0.000000 1.000000 0.000000
vn 0.000000 1.000000 0.000000
vn 0.000000 1.000000 0.000000
vn 0.000000 1.000000 0.000000
vn 0.000000 0.000000 1.000000
vn 0.000000 0.000000 1.000000
vn 0.000000 0.000000 1.000000
vn 0.000000 0.000000 1.000000
vn 1.000000 0.000000 0.000000
vn 1.000000 0.000000 0.000000
vn 1.000000 0.000000 0.000000
vn 1.000000 0.000000 0.000000
vn 0.000000 0.000000 -1.000000
vn 0.000000 0.000000 -1.000000
vn 0.000000 0.000000 -1.000000
vn 0.000000 0.000000 -1.000000
vn -1.000000 0.000000 0.000000
vn -1.000000 0.000000 0.000000
vn -1.000000 0.000000 0.000000
vn -1.000000 0.000000 0.000000
vn 0.000000 -1.000000 -0.000000
vn 0.000000 -1.000000 -0.000000
vn 0.000000 -1.000000 -0.000000
vn 0.000000 -1.000000 -0.000000
vn 0.000000 -1.000000 0.000000
vn 0.000000 -1.000000 0.000000
vn 0.000000 -1.000000 0.000000
vn 0.000000 -1.000000 0.000000
vn 0.000000 -1.000000 0.000000
vn 0.000000 -1.000000 0.000000
vn 0.000000 -1.000000 0.000000
vn 0.000000 -1.000000 0.000000
vn 0.000000 -1.000000 0.000000
vn 0.000000 -1.000000 0.000000
vn 0.000000 -1.000000 0.000000
vn 0.000000 -1.000000 0.000000
vn 0.000000 0.000000 1.000000
vn 0.000000 0.000000 1.000000
vn 0.000000 0.000000 1.000000
vn 0.000000 0.000000 1.000000
vn 1.000000 0.000000 0.000000
vn 1.000000 0.000000 0.000000
vn 1.000000 0.000000 0.000000
vn 1.000000 0.000000 0.000000
vn 0.000000 0.000000 -1.000000
vn 0.000000 0.000000 -1.000000
vn 0.000000 0.000000 -1.000000
vn 0.000000 0.000000 -1.000000
vn -1.000000 0.000000 0.000000
vn -1.000000 0.000000 0.000000
vn -1.000000 0.000000 0.000000
vn -1.000000 0.000000 0.000000
vn 0.000000 1.000000 0.000001
vn 0.000000 1.000000 0.000001
vn 0.000000 1.000000 0.000001
vn 0.000000 1.000000 0.000001
vn 0.000000 1.000000 0.000000
vn 0.000000 1.000000 0.000000
vn 0.000000 1.000000 0.000000
vn 0.000000 1.000000 0.000000
vn 0.000000 1.000000 0.000000
vn 0.000000 1.000000 0.000000
vn 0.000000 1.000000 0.000000
vn 0.000000 1.000000 0.000000
vn 0.000000 1.000000 0.000000
vn 0.000000 1.000000 0.000000
vn 0.000000 1.000000 0.000000
vn 0.000000 1.000000 0.000000
vn 0.000000 0.000000 1.000000
vn 0.000000 0.000000 1.000000
vn 0.000000 0.000000 1.000000
vn 0.000000 0.000000 1.000000
vn 1.000000 0.000000 0.000000
vn 1.000000 0.000000 0.000000
vn 1.000000 0.000000 0.000000
vn 1.000000 0.000000 0.000000
vn 0.000000 0.000000 -1.000000
vn 0.000000 0.000000 -1.000000
vn 0.000000 0.000000 -1.000000
vn 0.000000 0.000000 -1.000000
vn -1.000000 0.000000 0.000000
vn -1.000000 0.000000 0.000000
vn -1.000000 0.000000 0.000000
vn -1.000000 0.000000 0.000000
vn 0.000000 1.000000 0.000000
vn 0.000000 1.000000 0.000000
vn 0.000000 1.000000 0.000000
vn 0.000000 1.000000 0.000000
vn 0.000000 1.000000 0.000000
vn 0.000000 1.000000 0.000000
vn 0.000000 1.000000 0.000000
vn 0.000000 1.000000 0.000000
vn 0.000000 1.000000 -0.000000
vn 0.000000 1.000000 -0.000000
vn 0.000000 1.000000 -0.000000
vn 0.000000 1.000000 -0.000000
vn 0.000000 1.000000 0.000000
vn 0.000000 1.000000 0.000000
vn 0.000000 1.000000 0.000000
vn 0.000000 1.000000 0.000000
vn 0.000000 0.000000 1.000000
vn 0.000000 0.000000 1.000000
vn 0.000000 0.000000 1.000000
vn 0.000000 0.000000 1.000000
vn 1.000000 0.000000 0.000000
vn 1.000000 0.000000 0.000000
vn 1.000000 0.000000 0.000000
vn 1.000000 0.000000 0.000000
vn 0.000000 0.000000 -1.000000
vn 0.000000 0.000000 -1.000000
vn 0.000000 0.000000 -1.000000
vn 0.000000 0.000000 -1.000000
vn -1.000000 0.000000 0.000000
vn -1.000000 0.000000 0.000000
vn -1.000000 0.000000 0.000000
vn -1.000000 0.000000 0.000000
vn 0.000000 1.000000 0.000000
vn 0.000000 1.000000 0.000000
vn 0.000000 1.000000 0.000000
vn 0.000000 1.000000 0.000000
vn 0.000000 1.000000 0.000000
vn 0.000000 1.000000 0.000000
vn 0.000000 1.000000 0.000000
vn 0.000000 1.000000 0.000000
vn 0.000000 1.000000 -0.000000
vn 0.000000 1.000000 -0.000000
vn 0.000000 1.000000 -0.000000
vn 0.000000 1.000000 -0.000000
vn 0.000000 1.000000 0.000000
vn 0.000000 1.000000 0.000000
vn 0.000000 1.000000 0.000000
vn 0.000000 1.000000 0.000000
vn 0.000000 0.000000 1.000000
vn 0.000000 0.000000 1.000000
vn 0.000000 0.000000 1.000000
vn 0.000000 0.000000 1.000000
vn 1.000000 0.000000 0.000000
vn 1.000000 0.000000 0.000000
vn 1.000000 0.000000 0.000000
vn 1.000000 0.000000 0.000000
vn 0.000000 0.000000 -1.000000
vn 0.000000 0.000000 -1.000000
vn 0.000000 0.000000 -1.000000
vn 0.000000 0.000000 -1.000000
vn -1.000000 0.000000 0.000000
vn -1.000000 0.000000 0.000000
vn -1.000000 0.000000 0.000000
vn -1.000000 0.000000 0.000000
vn -1.000000 0.000000 0.000000
vn -1.000000 0.000000 0.000000
vn -1.000000 0.000000 0.000000
vn -1.000000 0.000000 0.000000
vn 0.000000 1.000000 0.000000
vn 0.000000 1.000000 0.000000
vn 0.000000 1.000000 0.000000
vn 0.000000 1.000000 0.000000
vn 1.000000 0.000000 0.000000
vn 1.000000 0.000000 0.000000
vn 1.000000 0.000000 0.000000
vn 1.000000 0.000000 0.000000
vn 0.000000 -1.000000 0.000000
vn 0.000000 -1.000000 0.000000
vn 0.000000 -1.000000 0.000000
vn 0.000000 -1.000000 0.000000
vn 0.000000 0.000000 1.000000
vn 0.000000 0.000000 1.000000
vn 0.000000 0.000000 1.000000
vn 0.000000 0.000000 1.000000
vn 0.000000 0.000000 -1.000000
vn 0.000000 0.000000 -1.000000
vn 0.000000 0.000000 -1.000000
vn 0.000000 0.000000 -1.000000
vn 0.000000 0.000000 1.000000
vn 0.000000 0.000000 1.000000
vn 0.000000 0.000000 1.000000
vn 0.000000 0.000000 1.000000
vn 0.000000 1.000000 0.000000
vn 0.000000 1.000000 0.000000
vn 0.000000 1.000000 0.000000
vn 0.000000 1.000000 0.000000
vn 0.000000 0.000000 -1.000000
vn 0.000000 0.000000 -1.000000
vn 0.000000 0.000000 -1.000000
vn 0.000000 0.000000 -1.000000
vn 0.000000 -1.000000 0.000000
vn 0.000000 -1.000000 0.000000
vn 0.000000 -1.000000 0.000000
vn 0.000000 -1.000000 0.000000
vn 1.000000 0.000000 0.000000
vn 1.000000 0.000000 0.000000
vn 1.000000 0.000000 0.000000
vn 1.000000 0.000000 0.000000
vn -1.000000 0.000000 0.000000
vn -1.000000 0.000000 0.000000
vn -1.000000 0.000000 0.000000
vn -1.000000 0.000000 0.000000
s off
g pCube20
usemtl initialShadingGroup
f 1/129/1 2/130/2 4/131/3 3/132/4
f 45/65/5 46/66/6 47/67/7 48/68/8
f 5/133/9 6/134/10 8/135/11 7/136/12
f 7/69/13 8/70/14 2/71/15 1/72/16
f 2/1/17 8/2/18 6/3/19 4/4/20
f 7/5/21 1/6/22 3/7/23 5/8/24
f 3/73/25 4/74/26 10/75/27 9/76/28
f 4/74/29 6/77/30 11/78/31 10/75/32
f 6/77/33 5/79/34 12/80/35 11/78/36
f 5/79/37 3/73/38 9/76/39 12/80/40
f 9/137/41 10/138/42 14/139/43 13/140/44
f 10/9/45 11/10/46 15/11/47 14/12/48
f 11/141/49 12/142/50 16/143/51 15/144/52
f 12/13/53 9/14/54 13/15/55 16/16/56
f 13/81/57 14/82/58 18/83/59 17/84/60
f 14/82/61 15/85/62 19/86/63 18/83/64
f 15/85/65 16/87/66 20/88/67 19/86/68
f 16/87/69 13/81/70 17/84/71 20/88/72
f 17/145/73 18/146/74 22/147/75 21/148/76
f 18/17/77 19/18/78 23/19/79 22/20/80
f 19/149/81 20/150/82 24/151/83 23/152/84
f 20/21/85 17/22/86 21/23/87 24/24/88
f 21/89/89 22/90/90 26/91/91 25/92/92
f 22/90/93 23/93/94 27/94/95 26/91/96
f 23/93/97 24/95/98 28/96/99 27/94/100
f 24/95/101 21/89/102 25/92/103 28/96/104
f 25/153/105 26/154/106 30/155/107 29/156/108
f 26/25/109 27/26/110 31/27/111 30/28/112
f 27/157/113 28/158/114 32/159/115 31/160/116
f 28/29/117 25/30/118 29/31/119 32/32/120
f 29/97/121 30/98/122 34/99/123 33/100/124
f 30/98/125 31/101/126 35/102/127 34/99/128
f 31/101/129 32/103/130 36/104/131 35/102/132
f 32/103/133 29/97/134 33/100/135 36/104/136
f 33/161/137 34/162/138 38/163/139 37/164/140
f 34/33/141 35/34/142 39/35/143 38/36/144
f 35/165/145 36/166/146 40/167/147 39/168/148
f 36/37/149 33/38/150 37/39/151 40/40/152
f 37/105/153 38/106/154 42/107/155 41/108/156
f 38/106/157 39/109/158 43/110/159 42/107/160
f 39/109/161 40/111/162 44/112/163 43/110/164
f 40/111/165 37/105/166 41/108/167 44/112/168
f 41/169/169 42/170/170 46/171/171 45/172/172
f 42/41/173 43/42/174 47/43/175 46/44/176
f 43/173/177 44/174/178 48/175/179 47/176/180
f 44/45/181 41/46/182 45/47/183 48/48/184
f 49/49/185 50/50/186 52/51/187 51/52/188
f 51/113/189 52/114/190 54/115/191 53/116/192
f 53/53/193 54/54/194 56/55/195 55/56/196
f 55/117/197 56/118/198 50/119/199 49/120/200
f 50/177/201 56/178/202 54/179/203 52/180/204
f 55/181/205 49/182/206 51/183/207 53/184/208
f 57/185/209 58/186/210 60/187/211 59/188/212
f 59/121/213 60/122/214 62/123/215 61/124/216
f 61/189/217 62/190/218 64/191/219 63/192/220
f 63/125/221 64/126/222 58/127/223 57/128/224
f 58/57/225 64/58/226 62/59/227 60/60/228
f 63/61/229 57/62/230 59/63/231 61/64/232
