# This file uses centimeters as units for non-parametric coordinates.

mtllib building.mtl
g default
v -5952.105469 7483.101563 7993.017578
v -4089.058594 7483.101563 7993.017578
v -5952.105469 6964.598145 7993.017578
v -4089.058594 6964.598145 7993.017578
v -5952.105469 6964.598145 7678.611328
v -4089.058594 6964.598145 7678.611328
v -5952.105469 7483.101563 7678.611328
v -4089.058594 7483.101563 7678.611328
v -5952.105469 3109.018555 7993.017578
v -4089.058594 3109.018555 7993.017578
v -5952.105469 2590.515137 7993.017578
v -4089.058594 2590.515137 7993.017578
v -5952.105469 2590.515137 7678.611328
v -4089.058594 2590.515137 7678.611328
v -5952.105469 3109.018555 7678.611328
v -4089.058594 3109.018555 7678.611328
v -4889.297852 -12089.146484 8488.160156
v 6292.161621 -12089.146484 8488.160156
v -4889.297852 10518.074219 7500.000000
v 6292.161621 10518.074219 7500.000000
v -4889.297852 10637.173828 -5135.776855
v 6292.161621 10637.173828 -5135.776855
v -4889.297852 -12089.146484 -4932.452148
v 6292.161621 -12089.146484 -4932.452148
v 6292.161621 1209.054443 7968.234375
v 6292.161621 1209.054443 -4932.452148
v -4889.297852 1209.054443 -4932.452148
v -4889.297852 1209.054443 7968.234375
v -4889.297852 10481.768555 8603.582031
v 6292.161621 10481.768555 8603.582031
v -4889.297852 1209.054443 8801.059570
v 6292.161621 1209.054443 8801.059570
v 6292.161621 9610.657227 -5079.010254
v 6292.161621 9610.657227 7546.823730
v 6292.161621 9610.657227 8603.582031
v -4889.297852 9610.657227 8603.582031
v -4889.297852 9610.657227 7546.823730
v -4889.297852 9610.657227 -5079.010254
v 6691.470215 10518.074219 7500.000000
v 6691.470215 10637.173828 -5135.776855
v 6691.470215 9610.657227 7546.823730
v 6691.470215 9610.657227 -5079.010254
v 6691.470215 9610.657227 8603.582031
v 6691.470215 10481.768555 8603.582031
v -5288.606445 9610.657227 7546.823730
v -5288.606445 10518.074219 7500.000000
v -5288.606445 9610.657227 8603.582031
v -5288.606445 10481.768555 8603.582031
v -5288.606445 9610.657227 -5079.010254
v -5288.606445 10637.173828 -5135.776855
v 6292.161621 6474.656738 7715.387695
v 6292.161621 6474.656738 -4932.452148
v -4889.297852 6474.656738 -4932.452148
v -4889.297852 6474.656738 7715.387695
v -4889.297852 6474.656738 8682.573242
v 6292.161621 6474.656738 8682.573242
v 6292.161621 9592.071289 -4932.452148
v 6292.161621 9592.071289 7563.680176
v 6292.161621 9592.071289 8611.481445
v -4889.297852 9592.071289 8611.481445
v -4889.297852 9592.071289 7563.680176
v -4889.297852 9592.071289 -4932.452148
v -6950.423340 8109.171875 8082.290039
v -5675.739258 8109.171875 8082.290039
v -6950.423340 -807.803711 8082.290039
v -5675.739258 -807.803711 8082.290039
v -6950.423340 -807.803711 7586.647461
v -5675.739258 -807.803711 7586.647461
v -6950.423340 8109.171875 7586.647461
v -5675.739258 8109.171875 7586.647461
v 5880.353516 -5393.024414 -3917.405273
v 7743.400391 -5393.024414 -3917.405273
v 5880.353516 -6117.554688 -3917.405273
v 7743.400391 -6117.554688 -3917.405273
v 5880.353516 -6117.554688 -4231.811523
v 7743.400391 -6117.554688 -4231.811523
v 5880.353516 -5393.024414 -4231.811523
v 7743.400391 -5393.024414 -4231.811523
v 5880.353516 -2905.792480 -3917.405273
v 7743.400391 -2905.792480 -3917.405273
v 5880.353516 -3630.322266 -3917.405273
v 7743.400391 -3630.322266 -3917.405273
v 5880.353516 -3630.322266 -4231.811523
v 7743.400391 -3630.322266 -4231.811523
v 5880.353516 -2905.792480 -4231.811523
v 7743.400391 -2905.792480 -4231.811523
v 7433.557617 -1007.309570 -3826.787109
v 9920.941406 -1007.309570 -3826.787109
v 7433.557617 -9041.591797 -3826.787109
v 9920.941406 -9041.591797 -3826.787109
v 7433.557617 -9041.591797 -4322.429688
v 9920.941406 -9041.591797 -4322.429688
v 7433.557617 -1007.309570 -4322.429688
v 9920.941406 -1007.309570 -4322.429688
vt 0.835631 0.164277
vt 0.943840 0.164277
vt 0.943840 0.326589
vt 0.835631 0.326589
vt 0.875048 0.327577
vt 0.983257 0.327577
vt 0.983257 0.489889
vt 0.875048 0.489889
vt 0.656284 0.435785
vt 0.764492 0.435785
vt 0.764492 0.652202
vt 0.656284 0.652202
vt 0.546902 0.453977
vt 0.655110 0.453977
vt 0.655110 0.670394
vt 0.546902 0.670394
vt 0.726249 0.000977
vt 0.726249 0.217393
vt 0.834458 0.217393
vt 0.834458 0.000977
vt 0.563654 0.798188
vt 0.563654 0.960500
vt 0.671862 0.960500
vt 0.671862 0.798188
vt 0.437520 0.453977
vt 0.437520 0.670394
vt 0.545728 0.670394
vt 0.545728 0.453977
vt 0.438505 0.834682
vt 0.438505 0.996994
vt 0.546714 0.996994
vt 0.546714 0.834682
vt 0.981551 0.658595
vt 0.981550 0.782328
vt 0.947808 0.782327
vt 0.947809 0.658595
vt 0.005395 0.683532
vt 0.129128 0.683531
vt 0.129129 0.820267
vt 0.005396 0.820268
vt 0.491718 0.000977
vt 0.615450 0.000977
vt 0.615450 0.034710
vt 0.491718 0.034710
vt 0.329123 0.671382
vt 0.452855 0.671382
vt 0.452855 0.816604
vt 0.329123 0.816604
vt 0.300847 0.235586
vt 0.165629 0.235586
vt 0.163987 0.201853
vt 0.300847 0.201853
vt 0.002562 0.201853
vt 0.139423 0.201853
vt 0.137781 0.235586
vt 0.002562 0.235586
vt 0.300847 0.144874
vt 0.161251 0.144874
vt 0.155625 0.000977
vt 0.300847 0.000977
vt 0.491718 0.091688
vt 0.615450 0.091688
vt 0.615450 0.235586
vt 0.491718 0.235586
vt 0.147785 0.000977
vt 0.142159 0.144874
vt 0.002562 0.144874
vt 0.002562 0.000977
vt 0.780016 0.797220
vt 0.656284 0.797197
vt 0.656311 0.653189
vt 0.780043 0.653213
vt 0.005395 0.671584
vt 0.129128 0.671583
vt 0.149119 0.235586
vt 0.149889 0.201853
vt 0.969649 0.124709
vt 0.969649 0.000977
vt 0.978661 0.000977
vt 0.978661 0.124709
vt 0.153521 0.201853
vt 0.154291 0.235586
vt 0.956121 0.000977
vt 0.954832 0.137706
vt 0.945013 0.138213
vt 0.945013 0.001591
vt 0.945013 0.149648
vt 0.954440 0.149648
vt 0.991196 0.658596
vt 0.991194 0.782328
vt 0.981768 0.782328
vt 0.981770 0.658595
vt 0.475423 0.012918
vt 0.465604 0.012412
vt 0.465604 0.000977
vt 0.475030 0.000977
vt 0.465604 0.149034
vt 0.476712 0.149648
vt 0.957339 0.129128
vt 0.957331 0.005396
vt 0.968456 0.005395
vt 0.968464 0.129128
vt 0.133546 0.683531
vt 0.133547 0.820267
vt 0.985416 0.137599
vt 0.985416 0.000977
vt 0.989834 0.000977
vt 0.989834 0.137599
vt 0.957331 0.000977
vt 0.968456 0.000977
vt 0.985416 0.149034
vt 0.989834 0.149034
vt 0.133546 0.671583
vt 0.981770 0.654177
vt 0.991196 0.654177
vt 0.984415 0.137599
vt 0.984415 0.149034
vt 0.979996 0.149034
vt 0.979996 0.137599
vt 0.991194 0.786747
vt 0.981768 0.786746
vt 0.000977 0.683532
vt 0.000977 0.671584
vt 0.984415 0.000977
vt 0.979996 0.000977
vt 0.000978 0.820268
vt 0.968464 0.133546
vt 0.957340 0.133547
vt 0.151171 0.144874
vt 0.890815 0.782326
vt 0.890817 0.658594
vt 0.152239 0.144874
vt 0.302433 0.235787
vt 0.165811 0.235787
vt 0.154376 0.235787
vt 0.149034 0.235787
vt 0.137599 0.235787
vt 0.000977 0.235787
vt 0.148796 0.124709
vt 0.148790 0.000977
vt 0.150389 0.000977
vt 0.150394 0.124709
vt 0.616867 0.218381
vt 0.616867 0.434798
vt 0.725075 0.434798
vt 0.725075 0.218381
vt 0.454272 0.671382
vt 0.454272 0.833694
vt 0.562480 0.833694
vt 0.562480 0.671382
vt 0.328138 0.435785
vt 0.328138 0.652202
vt 0.436346 0.652202
vt 0.436346 0.435785
vt 0.781433 0.762385
vt 0.781433 0.924698
vt 0.889641 0.924698
vt 0.889641 0.762385
vt 0.164557 0.236774
vt 0.164557 0.453191
vt 0.326870 0.453191
vt 0.326870 0.236774
vt 0.302024 0.000977
vt 0.302024 0.217393
vt 0.464336 0.217393
vt 0.464336 0.000977
vt 0.219741 0.653189
vt 0.219741 0.869606
vt 0.327949 0.869606
vt 0.327949 0.653189
vt 0.329123 0.817591
vt 0.329123 0.979904
vt 0.437331 0.979904
vt 0.437331 0.817591
vt 0.110359 0.454178
vt 0.110359 0.670595
vt 0.218567 0.670595
vt 0.218567 0.454178
vt 0.890815 0.490877
vt 0.890815 0.653189
vt 0.999023 0.653189
vt 0.999023 0.490877
vt 0.726249 0.218381
vt 0.726249 0.434798
vt 0.834458 0.434798
vt 0.834458 0.218381
vt 0.835631 0.000977
vt 0.835631 0.163289
vt 0.943840 0.163289
vt 0.943840 0.000977
vt 0.000977 0.454178
vt 0.000977 0.670595
vt 0.109185 0.670595
vt 0.109185 0.454178
vt 0.000977 0.821255
vt 0.000977 0.983568
vt 0.109185 0.983568
vt 0.109185 0.821255
vt 0.616867 0.000977
vt 0.616867 0.217393
vt 0.725075 0.217393
vt 0.725075 0.000977
vt 0.765666 0.435785
vt 0.765666 0.598098
vt 0.873875 0.598098
vt 0.873874 0.435785
vt 0.491718 0.236573
vt 0.491718 0.452990
vt 0.599926 0.452990
vt 0.599926 0.236573
vt 0.781433 0.599085
vt 0.781433 0.761398
vt 0.889641 0.761398
vt 0.889641 0.599085
vt 0.000977 0.236774
vt 0.000977 0.453191
vt 0.163289 0.453191
vt 0.163289 0.236774
vt 0.328138 0.218381
vt 0.328138 0.434798
vt 0.490450 0.434798
vt 0.490450 0.218381
vn 0.000000 0.000000 1.000000
vn 0.000000 0.000000 1.000000
vn 0.000000 0.000000 1.000000
vn 0.000000 0.000000 1.000000
vn 0.000000 -1.000000 0.000000
vn 0.000000 -1.000000 0.000000
vn 0.000000 -1.000000 0.000000
vn 0.000000 -1.000000 0.000000
vn 0.000000 0.000000 -1.000000
vn 0.000000 0.000000 -1.000000
vn 0.000000 0.000000 -1.000000
vn 0.000000 0.000000 -1.000000
vn 0.000000 1.000000 0.000000
vn 0.000000 1.000000 0.000000
vn 0.000000 1.000000 0.000000
vn 0.000000 1.000000 0.000000
vn 0.000000 0.000000 1.000000
vn 0.000000 0.000000 1.000000
vn 0.000000 0.000000 1.000000
vn 0.000000 0.000000 1.000000
vn 0.000000 -1.000000 0.000000
vn 0.000000 -1.000000 0.000000
vn 0.000000 -1.000000 0.000000
vn 0.000000 -1.000000 0.000000
vn 0.000000 0.000000 -1.000000
vn 0.000000 0.000000 -1.000000
vn 0.000000 0.000000 -1.000000
vn 0.000000 0.000000 -1.000000
vn 0.000000 1.000000 0.000000
vn 0.000000 1.000000 0.000000
vn 0.000000 1.000000 0.000000
vn 0.000000 1.000000 0.000000
vn 0.000000 0.025181 0.999683
vn 0.000000 0.025181 0.999683
vn 0.000000 0.022609 0.999744
vn 0.000000 0.022609 0.999744
vn 0.000000 0.999956 0.009425
vn 0.000000 0.999956 0.009425
vn 0.000000 0.999956 0.009425
vn 0.000000 0.999956 0.009425
vn 0.000000 -0.046683 -0.998910
vn 0.000000 -0.046683 -0.998910
vn 0.000000 0.000000 -1.000000
vn 0.000000 0.000000 -1.000000
vn 0.000000 -1.000000 0.000000
vn 0.000000 -1.000000 0.000000
vn 0.000000 -1.000000 0.000000
vn 0.000000 -1.000000 0.000000
vn 1.000000 -0.000000 0.000000
vn 1.000000 -0.000000 0.000000
vn 1.000000 0.000000 0.000000
vn 1.000000 0.000000 0.000000
vn -1.000000 -0.000000 0.000000
vn -1.000000 -0.000000 0.000000
vn -1.000000 -0.000000 0.000000
vn -1.000000 0.000000 0.000000
vn 1.000000 0.000000 0.000000
vn 1.000000 0.000000 0.000000
vn 1.000000 0.000000 0.000000
vn 1.000000 0.000000 0.000000
vn 0.000000 0.000000 -1.000000
vn 0.000000 0.000000 -1.000000
vn 0.000000 0.000000 -1.000000
vn 0.000000 0.000000 -1.000000
vn -1.000000 0.000000 0.000000
vn -1.000000 0.000000 0.000000
vn -1.000000 0.000000 0.000000
vn -1.000000 0.000000 0.000000
vn 0.000000 0.039068 0.999237
vn 0.000000 0.039068 0.999237
vn 0.000000 0.039068 0.999237
vn 0.000000 0.039068 0.999237
vn 0.000000 0.999459 0.032880
vn 0.000000 0.999459 0.032880
vn 0.000000 0.999459 0.032880
vn 0.000000 0.999459 0.032880
vn -1.000000 -0.000000 0.000000
vn -1.000000 -0.000000 0.000000
vn -1.000000 0.000000 0.000000
vn -1.000000 0.000000 0.000000
vn 0.000000 -1.000000 0.000000
vn 0.000000 -1.000000 0.000000
vn 0.000000 -1.000000 0.000000
vn 0.000000 -1.000000 0.000000
vn 1.000000 -0.000000 0.000000
vn 1.000000 -0.000000 0.000000
vn 1.000000 0.000000 0.000000
vn 1.000000 0.000000 0.000000
vn 1.000000 -0.000000 0.000000
vn 1.000000 -0.000000 0.000000
vn 1.000000 -0.000000 0.000000
vn 1.000000 -0.000000 0.000000
vn 1.000000 -0.000001 0.000000
vn 1.000000 -0.000001 0.000000
vn 1.000000 -0.000001 0.000000
vn 1.000000 -0.000001 0.000000
vn 0.000000 0.000000 1.000000
vn 0.000000 0.000000 1.000000
vn 0.000000 0.008878 0.999961
vn 0.000000 0.008878 0.999961
vn -1.000000 0.000001 0.000000
vn -1.000000 0.000001 0.000000
vn -1.000000 0.000001 0.000000
vn -1.000000 0.000001 0.000000
vn -1.000000 0.000000 0.000000
vn -1.000000 0.000000 0.000000
vn -1.000000 0.000000 0.000000
vn -1.000000 0.000000 0.000000
vn 0.000000 -0.055216 -0.998474
vn 0.000000 -0.055216 -0.998474
vn 0.000000 -0.190970 -0.981596
vn 0.000000 -0.190970 -0.981596
vn 0.000000 0.999956 0.009425
vn 0.000000 0.999956 0.009425
vn 0.000000 0.999956 0.009425
vn 0.000000 0.999956 0.009425
vn 0.000000 -1.000000 0.000000
vn 0.000000 -1.000000 0.000000
vn 0.000000 -1.000000 0.000000
vn 0.000000 -1.000000 0.000000
vn 0.000000 -0.055216 -0.998475
vn 0.000000 -0.055216 -0.998475
vn 0.000000 -0.055216 -0.998475
vn 0.000000 -0.055216 -0.998475
vn 0.000000 -1.000000 0.000000
vn 0.000000 -1.000000 0.000000
vn 0.000000 -1.000000 0.000000
vn 0.000000 -1.000000 0.000000
vn 0.000000 0.999459 0.032880
vn 0.000000 0.999459 0.032880
vn 0.000000 0.999459 0.032880
vn 0.000000 0.999459 0.032880
vn 0.000000 0.000000 1.000000
vn 0.000000 0.000000 1.000000
vn 0.000000 0.000000 1.000000
vn 0.000000 0.000000 1.000000
vn 0.000000 -1.000000 0.000000
vn 0.000000 -1.000000 0.000000
vn 0.000000 -1.000000 0.000000
vn 0.000000 -1.000000 0.000000
vn 0.000000 0.000000 1.000000
vn 0.000000 0.000000 1.000000
vn 0.000000 0.000000 1.000000
vn 0.000000 0.000000 1.000000
vn 0.000000 0.999459 0.032880
vn 0.000000 0.999459 0.032880
vn 0.000000 0.999459 0.032880
vn 0.000000 0.999459 0.032880
vn 0.000000 -1.000000 0.000000
vn 0.000000 -1.000000 0.000000
vn 0.000000 -1.000000 0.000000
vn 0.000000 -1.000000 0.000000
vn 0.000000 0.999956 0.009425
vn 0.000000 0.999956 0.009425
vn 0.000000 0.999956 0.009425
vn 0.000000 0.999956 0.009425
vn 0.000000 -0.055216 -0.998475
vn 0.000000 -0.055216 -0.998475
vn 0.000000 -0.055216 -0.998475
vn 0.000000 -0.055216 -0.998475
vn -1.000000 0.000000 0.000000
vn -1.000000 0.000000 0.000000
vn 0.000000 0.022496 0.999747
vn 0.000000 0.022496 0.999747
vn 1.000000 -0.000000 0.000000
vn 1.000000 -0.000000 0.000000
vn 1.000000 -0.000003 0.000000
vn 1.000000 -0.000003 0.000000
vn 1.000000 0.000006 0.000000
vn 1.000000 0.000006 0.000000
vn -1.000000 -0.000005 0.000000
vn -1.000000 -0.000005 0.000000
vn -1.000000 0.000010 0.000000
vn -1.000000 0.000010 0.000000
vn 0.000000 0.000000 1.000000
vn 0.000000 0.000000 1.000000
vn 0.000000 0.000000 1.000000
vn 0.000000 0.000000 1.000000
vn 0.000000 -1.000000 0.000000
vn 0.000000 -1.000000 0.000000
vn 0.000000 -1.000000 0.000000
vn 0.000000 -1.000000 0.000000
vn 0.000000 0.000000 -1.000000
vn 0.000000 0.000000 -1.000000
vn 0.000000 0.000000 -1.000000
vn 0.000000 0.000000 -1.000000
vn 0.000000 1.000000 0.000000
vn 0.000000 1.000000 0.000000
vn 0.000000 1.000000 0.000000
vn 0.000000 1.000000 0.000000
vn 1.000000 0.000000 0.000000
vn 1.000000 0.000000 0.000000
vn 1.000000 0.000000 0.000000
vn 1.000000 0.000000 0.000000
vn -1.000000 0.000000 0.000000
vn -1.000000 0.000000 0.000000
vn -1.000000 0.000000 0.000000
vn -1.000000 0.000000 0.000000
vn 0.000000 0.000000 1.000000
vn 0.000000 0.000000 1.000000
vn 0.000000 0.000000 1.000000
vn 0.000000 0.000000 1.000000
vn 0.000000 -1.000000 0.000000
vn 0.000000 -1.000000 0.000000
vn 0.000000 -1.000000 0.000000
vn 0.000000 -1.000000 0.000000
vn 0.000000 0.000000 -1.000000
vn 0.000000 0.000000 -1.000000
vn 0.000000 0.000000 -1.000000
vn 0.000000 0.000000 -1.000000
vn 0.000000 1.000000 0.000000
vn 0.000000 1.000000 0.000000
vn 0.000000 1.000000 0.000000
vn 0.000000 1.000000 0.000000
vn 0.000000 0.000000 1.000000
vn 0.000000 0.000000 1.000000
vn 0.000000 0.000000 1.000000
vn 0.000000 0.000000 1.000000
vn 0.000000 -1.000000 0.000000
vn 0.000000 -1.000000 0.000000
vn 0.000000 -1.000000 0.000000
vn 0.000000 -1.000000 0.000000
vn 0.000000 0.000000 -1.000000
vn 0.000000 0.000000 -1.000000
vn 0.000000 0.000000 -1.000000
vn 0.000000 0.000000 -1.000000
vn 0.000000 1.000000 0.000000
vn 0.000000 1.000000 0.000000
vn 0.000000 1.000000 0.000000
vn 0.000000 1.000000 0.000000
vn 0.000000 0.000000 1.000000
vn 0.000000 0.000000 1.000000
vn 0.000000 0.000000 1.000000
vn 0.000000 0.000000 1.000000
vn 0.000000 -1.000000 0.000000
vn 0.000000 -1.000000 0.000000
vn 0.000000 -1.000000 0.000000
vn 0.000000 -1.000000 0.000000
vn 0.000000 0.000000 -1.000000
vn 0.000000 0.000000 -1.000000
vn 0.000000 0.000000 -1.000000
vn 0.000000 0.000000 -1.000000
vn 0.000000 1.000000 0.000000
vn 0.000000 1.000000 0.000000
vn 0.000000 1.000000 0.000000
vn 0.000000 1.000000 0.000000
vn 1.000000 0.000000 0.000000
vn 1.000000 0.000000 0.000000
vn 1.000000 0.000000 0.000000
vn 1.000000 0.000000 0.000000
vn -1.000000 0.000000 0.000000
vn -1.000000 0.000000 0.000000
vn -1.000000 0.000000 0.000000
vn -1.000000 0.000000 0.000000
s off
g building
usemtl initialShadingGroup
f 1/9/1 3/12/2 4/11/3 2/10/4
f 3/1/5 5/4/6 6/3/7 4/2/8
f 5/13/9 7/16/10 8/15/11 6/14/12
f 7/5/13 1/8/14 2/7/15 8/6/16
f 9/17/17 11/18/18 12/19/19 10/20/20
f 11/21/21 13/22/22 14/23/23 12/24/24
f 13/25/25 15/26/26 16/27/27 14/28/28
f 15/29/29 9/30/30 10/31/31 16/32/32
s 1
f 59/33/33 60/34/34 55/35/35 56/36/36
s off
f 19/37/37 20/38/38 22/39/39 21/40/40
s 2
f 62/41/41 57/42/42 52/43/43 53/44/44
s off
f 23/45/45 24/46/46 18/47/47 17/48/48
s 3
f 57/49/49 58/50/50 51/51/51 52/52/52
s 4
f 53/53/53 54/54/54 61/55/55 62/56/56
s 3
f 26/57/57 25/58/58 18/59/59 24/60/60
s 2
f 27/61/61 26/62/62 24/63/63 23/64/64
s 4
f 17/65/65 28/66/66 27/67/67 23/68/68
s off
f 25/69/69 28/70/70 17/71/71 18/72/72
f 20/38/73 19/37/74 29/73/75 30/74/76
s 5
f 60/75/77 61/55/78 54/54/79 55/76/80
s off
f 28/77/81 25/78/82 32/79/83 31/80/84
s 6
f 56/81/85 51/51/86 58/50/87 59/82/88
s off
f 40/83/89 39/84/90 41/85/91 42/86/92
f 43/87/93 41/85/94 39/84/95 44/88/96
s 1
f 30/89/97 29/90/98 36/91/99 35/92/100
s off
f 46/93/101 45/94/102 47/95/103 48/96/104
f 49/97/105 45/94/106 46/93/107 50/98/108
s 2
f 21/99/109 22/100/110 33/101/111 38/102/112
s off
f 22/39/113 20/38/114 39/103/115 40/104/116
f 34/105/117 33/106/118 42/107/119 41/108/120
f 33/101/121 22/100/122 40/109/123 42/110/124
f 35/111/125 34/105/126 41/108/127 43/112/128
f 20/38/129 30/74/130 44/113/131 39/103/132
f 30/89/133 35/92/134 43/114/135 44/115/136
f 37/116/137 36/117/138 47/118/139 45/119/140
f 36/91/141 29/90/142 48/120/143 47/121/144
f 29/73/145 19/37/146 46/122/147 48/123/148
f 38/124/149 37/116/150 45/119/151 49/125/152
f 19/37/153 21/40/154 50/126/155 46/122/156
f 21/99/157 38/102/158 49/127/159 50/128/160
s 3
f 52/52/52 51/51/51 25/58/58 26/57/57
s 2
f 53/44/44 52/43/43 26/62/62 27/61/61
s 4
f 27/67/67 28/66/66 54/54/54 53/53/53
s 5
f 55/76/80 54/54/79 28/66/161 31/129/162
s 1
f 56/36/36 55/35/35 31/130/163 32/131/164
s 6
f 25/58/165 51/51/86 56/81/85 32/132/166
s 3
f 33/133/167 34/134/168 58/50/50 57/49/49
s 6
f 59/82/88 58/50/87 34/134/169 35/135/170
s 1
f 35/92/100 36/91/99 60/34/34 59/33/33
s 5
f 36/136/171 37/137/172 61/55/78 60/75/77
s 4
f 62/56/56 61/55/55 37/137/173 38/138/174
s 2
f 38/139/112 33/140/111 57/141/42 62/142/41
s off
f 63/143/175 65/144/176 66/145/177 64/146/178
f 65/147/179 67/148/180 68/149/181 66/150/182
f 67/151/183 69/152/184 70/153/185 68/154/186
f 69/155/187 63/156/188 64/157/189 70/158/190
f 64/159/191 66/160/192 68/161/193 70/162/194
f 69/163/195 67/164/196 65/165/197 63/166/198
f 71/167/199 73/168/200 74/169/201 72/170/202
f 73/171/203 75/172/204 76/173/205 74/174/206
f 75/175/207 77/176/208 78/177/209 76/178/210
f 77/179/211 71/180/212 72/181/213 78/182/214
f 79/183/215 81/184/216 82/185/217 80/186/218
f 81/187/219 83/188/220 84/189/221 82/190/222
f 83/191/223 85/192/224 86/193/225 84/194/226
f 85/195/227 79/196/228 80/197/229 86/198/230
f 87/199/231 89/200/232 90/201/233 88/202/234
f 89/203/235 91/204/236 92/205/237 90/206/238
f 91/207/239 93/208/240 94/209/241 92/210/242
f 93/211/243 87/212/244 88/213/245 94/214/246
f 88/215/247 90/216/248 92/217/249 94/218/250
f 93/219/251 91/220/252 89/221/253 87/222/254
