# This file uses centimeters as units for non-parametric coordinates.

mtllib sun_low.mtl
g default
v 0.641740 17.193477 -1.245570
v 0.641740 16.712705 -2.406258
v 0.641740 15.947907 -3.402962
v 0.641740 14.951202 -4.167761
v 0.641740 13.790515 -4.648533
v 0.641740 12.544944 -4.812516
v 0.641740 11.299373 -4.648534
v 0.641740 10.138686 -4.167762
v 0.641740 9.141980 -3.402964
v 0.641740 8.377182 -2.406259
v 0.641740 7.896409 -1.245571
v 0.641740 7.896409 1.245571
v 0.641740 8.377181 2.406259
v 0.641740 9.141980 3.402964
v 0.641740 10.138685 4.167763
v 0.641740 11.299372 4.648535
v 0.641740 12.544943 4.812518
v 0.641740 13.790515 4.648536
v 0.641740 14.951203 4.167763
v 0.641740 15.947908 3.402965
v 0.641740 16.712707 2.406259
v 0.641740 17.193480 1.245572
v 0.641740 17.357462 0.000000
v -0.641740 17.193477 -1.245570
v -0.641740 16.712705 -2.406258
v -0.641740 15.947907 -3.402962
v -0.641740 14.951202 -4.167761
v -0.641740 13.790515 -4.648533
v -0.641740 12.544944 -4.812516
v -0.641740 11.299373 -4.648534
v -0.641740 10.138686 -4.167762
v -0.641740 9.141980 -3.402964
v -0.641740 8.377182 -2.406259
v -0.641740 7.896409 -1.245571
v -0.641740 7.896409 1.245571
v -0.641740 8.377181 2.406259
v -0.641740 9.141980 3.402964
v -0.641740 10.138685 4.167763
v -0.641740 11.299372 4.648535
v -0.641740 12.544943 4.812518
v -0.641740 13.790515 4.648536
v -0.641740 14.951203 4.167763
v -0.641740 15.947908 3.402965
v -0.641740 16.712707 2.406259
v -0.641740 17.193480 1.245572
v -0.641740 17.357462 0.000000
v 0.641740 14.338636 4.417349
v -0.641740 14.338636 4.417349
v 0.641740 14.338636 -4.421494
v -0.641740 14.338636 -4.421494
v 0.641740 13.790515 -3.402962
v -0.641740 13.790515 -3.402962
v 0.641740 13.790515 -2.406258
v -0.641740 13.790515 -2.406258
v 0.641740 13.790515 -1.245570
v -0.641740 13.790515 -1.245570
v 0.641740 13.790515 0.000000
v -0.641740 13.790515 0.000000
v 0.641740 13.790515 1.245572
v -0.641740 13.790515 1.245572
v 0.641740 13.790515 2.406259
v -0.641740 13.790515 2.406259
v 0.641740 13.790515 3.402965
v -0.641740 13.790515 3.402965
v 0.641740 13.790515 -4.167761
v -0.641740 13.790515 -4.167761
v 0.641740 13.790515 4.167763
v -0.641740 13.790515 4.167763
vt 0.176718 0.001880
vt 0.214182 0.001880
vt 0.214182 0.312548
vt 0.176718 0.312548
vt 0.246353 0.001880
vt 0.246353 0.312548
vt 0.136515 0.001880
vt 0.136515 0.312548
vt 0.271038 0.001880
vt 0.271038 0.312548
vt 0.096312 0.001880
vt 0.096312 0.312548
vt 0.058848 0.001880
vt 0.058848 0.312548
vt 0.026677 0.001880
vt 0.026677 0.312548
vt 0.001992 0.001880
vt 0.001992 0.312548
vt 0.647290 0.001880
vt 0.684754 0.001880
vt 0.684754 0.312548
vt 0.647290 0.312548
vt 0.765160 0.001880
vt 0.765160 0.312548
vt 0.802624 0.001880
vt 0.802624 0.312548
vt 0.998008 0.316539
vt 0.998008 0.627207
vt 0.728962 0.627207
vt 0.728962 0.316539
vt 0.422744 0.627207
vt 0.422744 0.316539
vt 0.722826 0.316539
vt 0.722826 0.627207
vt 0.416609 0.316539
vt 0.416609 0.627207
vt 0.105941 0.627207
vt 0.105941 0.316539
vt 0.157326 0.631198
vt 0.157326 0.941866
vt 0.001992 0.941866
vt 0.001992 0.631198
vt 0.395224 0.312548
vt 0.395224 0.001880
vt 0.614900 0.001880
vt 0.614900 0.312548
vt 0.370539 0.001880
vt 0.370539 0.312548
vt 0.639585 0.001880
vt 0.639585 0.312548
vt 0.163950 0.941866
vt 0.163950 0.631198
vt 0.179468 0.631198
vt 0.179468 0.941866
vt 0.204153 0.631198
vt 0.204153 0.941866
vt 0.236324 0.631198
vt 0.236324 0.941866
vt 0.273788 0.631198
vt 0.273788 0.941866
vt 0.313991 0.631198
vt 0.313991 0.941866
vt 0.354194 0.631198
vt 0.354194 0.941866
vt 0.391658 0.631198
vt 0.391658 0.941866
vt 0.423829 0.631198
vt 0.423829 0.941866
vt 0.448514 0.631198
vt 0.448514 0.941866
vt 0.464032 0.631198
vt 0.464032 0.941866
vt 0.795411 0.668662
vt 0.810928 0.631198
vt 0.810928 0.786532
vt 0.795411 0.749069
vt 0.717452 0.655884
vt 0.749623 0.631199
vt 0.749623 0.900245
vt 0.717452 0.875559
vt 0.900654 0.007173
vt 0.940857 0.001880
vt 0.940857 0.312548
vt 0.900654 0.307255
vt 0.987632 0.312548
vt 0.947429 0.307255
vt 0.947429 0.007173
vt 0.987632 0.001880
vt 0.788602 0.900245
vt 0.756432 0.875559
vt 0.756432 0.655884
vt 0.788602 0.631199
vt 0.834316 0.786532
vt 0.818798 0.749069
vt 0.818798 0.668662
vt 0.834316 0.631199
vt 0.566204 0.703572
vt 0.581722 0.741036
vt 0.471885 0.741036
vt 0.471885 0.703572
vt 0.587015 0.781239
vt 0.471885 0.781239
vt 0.541519 0.671402
vt 0.471885 0.671402
vt 0.581722 0.821443
vt 0.471884 0.821443
vt 0.471885 0.646716
vt 0.509348 0.646716
vt 0.566204 0.858906
vt 0.471884 0.858906
vt 0.489576 0.638527
vt 0.471885 0.631198
vt 0.541519 0.891077
vt 0.471884 0.891077
vt 0.509348 0.915762
vt 0.471884 0.915762
vt 0.489576 0.923818
vt 0.471884 0.931280
vt 0.664303 0.671402
vt 0.594668 0.671402
vt 0.594668 0.646716
vt 0.632132 0.646716
vt 0.688988 0.703573
vt 0.594668 0.703573
vt 0.612360 0.638660
vt 0.594668 0.631199
vt 0.704506 0.741036
vt 0.594668 0.741036
vt 0.709799 0.781240
vt 0.594669 0.781240
vt 0.704506 0.821443
vt 0.594669 0.821443
vt 0.688988 0.858906
vt 0.594669 0.858906
vt 0.664303 0.891077
vt 0.594669 0.891077
vt 0.632132 0.915763
vt 0.594669 0.915763
vt 0.612360 0.923952
vt 0.594669 0.931280
vt 0.316402 0.312548
vt 0.296630 0.312548
vt 0.296630 0.001880
vt 0.316402 0.001880
vt 0.278938 0.312548
vt 0.278938 0.001880
vt 0.363967 0.312548
vt 0.323764 0.312548
vt 0.323764 0.001880
vt 0.363967 0.001880
vt 0.809053 0.001880
vt 0.849257 0.001880
vt 0.849257 0.312548
vt 0.809053 0.312548
vt 0.855828 0.001880
vt 0.873520 0.001880
vt 0.873520 0.312548
vt 0.855828 0.312548
vt 0.893292 0.001880
vt 0.893292 0.312548
vn 0.000000 0.965926 -0.258820
vn 0.000000 0.866025 -0.500000
vn 0.000000 0.866025 -0.500000
vn 0.000000 0.965926 -0.258820
vn 0.000000 0.707107 -0.707107
vn 0.000000 0.707107 -0.707107
vn 0.000000 0.534800 -0.844979
vn 0.000000 0.534800 -0.844979
vn 0.000000 0.382683 -0.923880
vn 0.000000 0.382683 -0.923880
vn -0.000000 -0.130526 -0.991445
vn -0.000000 -0.130526 -0.991445
vn -0.000000 -0.130526 -0.991445
vn -0.000000 -0.130526 -0.991445
vn -0.000000 -0.608761 -0.793354
vn -0.000000 -0.608761 -0.793354
vn -0.000000 -0.608761 -0.793354
vn -0.000000 -0.608761 -0.793354
vn -0.000000 -0.923879 -0.382684
vn -0.000000 -0.923879 -0.382684
vn -0.000000 -0.923879 -0.382684
vn -0.000000 -0.923879 -0.382684
vn 0.000000 -0.923880 0.382683
vn 0.000000 -0.923880 0.382683
vn 0.000000 -0.923880 0.382683
vn 0.000000 -0.923880 0.382683
vn 0.000000 -0.608762 0.793353
vn 0.000000 -0.608762 0.793353
vn 0.000000 -0.608762 0.793353
vn 0.000000 -0.608762 0.793353
vn 0.000000 -0.130526 0.991445
vn 0.000000 -0.130526 0.991445
vn 0.000000 -0.130526 0.991445
vn 0.000000 -0.130526 0.991445
vn 0.000000 0.388627 0.921395
vn 0.000000 0.382683 0.923880
vn 0.000000 0.382683 0.923880
vn 0.000000 0.388627 0.921395
vn 0.000000 0.533242 0.845963
vn 0.000000 0.707107 0.707107
vn 0.000000 0.707107 0.707107
vn 0.000000 0.533242 0.845963
vn 0.000000 0.866025 0.500000
vn 0.000000 0.866025 0.500000
vn 0.000000 0.965926 0.258819
vn 0.000000 0.965926 0.258819
vn 0.000000 1.000000 -0.000001
vn 0.000000 1.000000 -0.000001
vn 1.000000 0.000000 0.000000
vn 1.000000 0.000000 0.000000
vn 1.000000 0.000000 0.000000
vn 1.000000 0.000000 0.000000
vn 1.000000 0.000000 0.000000
vn 1.000000 0.000000 0.000000
vn 1.000000 0.000000 0.000000
vn 1.000000 0.000000 0.000000
vn 1.000000 0.000000 0.000000
vn 1.000000 0.000000 0.000000
vn 1.000000 0.000000 0.000000
vn 1.000000 0.000000 0.000000
vn -1.000000 0.000000 0.000000
vn -1.000000 0.000000 0.000000
vn -1.000000 0.000000 0.000000
vn -1.000000 0.000000 0.000000
vn -1.000000 0.000000 0.000000
vn -1.000000 0.000000 0.000000
vn -1.000000 0.000000 0.000000
vn -1.000000 0.000000 0.000000
vn 0.000000 1.000000 0.000000
vn 0.000000 1.000000 0.000000
vn 0.000000 1.000000 0.000000
vn 0.000000 1.000000 0.000000
vn -0.000000 -1.000000 -0.000000
vn -0.000000 -1.000000 -0.000000
vn -0.000000 -1.000000 -0.000000
vn -0.000000 -1.000000 -0.000000
vn 0.000000 1.000000 0.000000
vn 0.000000 1.000000 0.000000
vn 0.000000 1.000000 0.000000
vn 0.000000 1.000000 0.000000
vn 0.000000 1.000000 0.000000
vn 0.000000 1.000000 0.000000
vn 0.000000 1.000000 0.000000
vn 0.000000 1.000000 0.000000
vn -1.000000 0.000000 0.000000
vn -1.000000 0.000000 0.000000
vn -1.000000 0.000000 0.000000
vn -1.000000 0.000000 0.000000
vn -0.000000 -1.000000 -0.000000
vn -0.000000 -1.000000 -0.000000
vn -0.000000 -1.000000 -0.000000
vn -0.000000 -1.000000 -0.000000
vn -0.000000 -1.000000 -0.000000
vn -0.000000 -1.000000 -0.000000
vn -0.000000 -1.000000 -0.000000
vn -0.000000 -1.000000 -0.000000
vn 0.000000 -1.000000 0.000000
vn 0.000000 -1.000000 0.000000
vn 0.000000 -1.000000 0.000000
vn 0.000000 -1.000000 0.000000
vn 0.000000 0.382683 -0.923880
vn 0.000000 0.382683 -0.923880
vn 1.000000 0.000000 0.000000
vn 1.000000 0.000000 0.000000
vn 1.000000 0.000000 0.000000
vn 1.000000 0.000000 0.000000
vn 1.000000 0.000000 -0.000000
vn 1.000000 0.000000 -0.000000
vn 1.000000 0.000000 -0.000000
vn 1.000000 0.000000 -0.000000
vn 1.000000 0.000000 0.000000
vn 1.000000 0.000000 0.000000
vn 1.000000 0.000000 0.000000
vn 1.000000 0.000000 0.000000
vn 1.000000 0.000000 0.000000
vn 1.000000 0.000000 0.000000
vn 1.000000 0.000000 0.000000
vn 1.000000 0.000000 0.000000
vn 1.000000 0.000000 0.000000
vn 1.000000 0.000000 0.000000
vn 1.000000 0.000000 0.000000
vn 1.000000 0.000000 0.000000
vn 1.000000 0.000000 0.000000
vn 1.000000 0.000000 0.000000
vn 1.000000 0.000000 0.000000
vn 1.000000 0.000000 0.000000
vn 1.000000 0.000000 0.000000
vn 1.000000 0.000000 0.000000
vn 1.000000 0.000000 0.000000
vn 1.000000 0.000000 0.000000
vn 1.000000 0.000000 0.000000
vn 1.000000 0.000000 0.000000
vn 1.000000 0.000000 0.000000
vn 1.000000 0.000000 0.000000
vn 0.000000 -1.000000 0.000000
vn 0.000000 -1.000000 0.000000
vn 0.000000 -1.000000 0.000000
vn 0.000000 -1.000000 0.000000
vn 0.000000 -1.000000 0.000000
vn 0.000000 -1.000000 0.000000
vn -0.000000 -1.000000 -0.000000
vn -0.000000 -1.000000 -0.000000
vn -0.000000 -1.000000 -0.000000
vn -0.000000 -1.000000 -0.000000
vn 0.000000 -1.000000 0.000000
vn 0.000000 -1.000000 0.000000
vn 0.000000 -1.000000 0.000000
vn 0.000000 -1.000000 0.000000
vn 0.000000 -1.000000 0.000000
vn 0.000000 -1.000000 0.000000
vn 0.000000 -1.000000 0.000000
vn 0.000000 -1.000000 0.000000
vn -1.000000 0.000000 0.000000
vn -1.000000 0.000000 0.000000
vn -1.000000 0.000000 0.000000
vn -1.000000 0.000000 0.000000
vn -1.000000 0.000000 0.000000
vn -1.000000 0.000000 0.000000
vn -1.000000 0.000000 0.000000
vn -1.000000 0.000000 0.000000
vn -1.000000 0.000000 0.000000
vn -1.000000 0.000000 0.000000
vn -1.000000 0.000000 0.000000
vn -1.000000 0.000000 0.000000
vn -1.000000 0.000000 0.000000
vn -1.000000 0.000000 0.000000
vn -1.000000 0.000000 0.000000
vn -1.000000 0.000000 0.000000
vn -1.000000 0.000000 0.000000
vn -1.000000 0.000000 0.000000
vn -1.000000 0.000000 0.000000
vn -1.000000 0.000000 0.000000
vn -1.000000 0.000000 0.000000
vn -1.000000 0.000000 0.000000
vn -1.000000 0.000000 0.000000
vn -1.000000 0.000000 0.000000
vn -1.000000 0.000000 -0.000000
vn -1.000000 0.000000 -0.000000
vn -1.000000 0.000000 -0.000000
vn -1.000000 0.000000 -0.000000
vn -1.000000 0.000000 0.000000
vn -1.000000 0.000000 0.000000
vn -1.000000 0.000000 0.000000
vn -1.000000 0.000000 0.000000
vn 1.000000 0.000000 0.000000
vn 1.000000 0.000000 0.000000
vn 1.000000 0.000000 0.000000
vn 1.000000 0.000000 0.000000
vn -1.000000 0.000000 0.000000
vn -1.000000 0.000000 0.000000
vn -1.000000 0.000000 0.000000
vn -1.000000 0.000000 0.000000
vn -1.000000 0.000000 0.000000
vn -1.000000 0.000000 0.000000
vn -1.000000 0.000000 0.000000
vn -1.000000 0.000000 0.000000
vn 1.000000 0.000000 0.000000
vn 1.000000 0.000000 0.000000
vn 1.000000 0.000000 0.000000
vn 1.000000 0.000000 0.000000
s 1
g retrosun_low
usemtl initialShadingGroup
f 1/1/1 2/2/2 25/3/3 24/4/4
f 2/2/2 3/5/5 26/6/6 25/3/3
f 3/5/5 4/9/7 27/10/8 26/6/6
f 4/141/7 49/142/9 50/143/10 27/144/8
s off
f 6/147/11 7/148/12 30/149/13 29/150/14
f 8/47/15 9/44/16 32/43/17 31/48/18
f 10/19/19 11/20/20 34/21/21 33/22/22
f 12/23/23 13/25/24 36/26/25 35/24/26
f 14/45/27 15/49/28 38/50/29 37/46/30
f 16/151/31 17/152/32 40/153/33 39/154/34
s 1
f 18/155/35 47/156/36 48/157/37 41/158/38
f 19/17/39 20/15/40 43/16/41 42/18/42
f 20/15/40 21/13/43 44/14/44 43/16/41
f 21/13/43 22/11/45 45/12/46 44/14/44
f 22/11/45 23/7/47 46/8/48 45/12/46
f 23/7/47 1/1/1 24/4/4 46/8/48
s off
f 11/73/49 10/74/50 13/75/51 12/76/52
f 9/77/53 8/78/54 15/79/55 14/80/56
f 7/81/57 6/82/58 17/83/59 16/84/60
f 29/85/61 30/86/62 39/87/63 40/88/64
f 31/89/65 32/90/66 37/91/67 38/92/68
f 8/27/69 31/28/70 38/29/71 15/30/72
f 30/31/73 7/32/74 16/33/75 39/34/76
f 6/35/77 29/36/78 40/37/79 17/38/80
f 10/39/81 33/40/82 36/41/83 13/42/84
f 33/93/85 34/94/86 35/95/87 36/96/88
f 34/21/89 11/20/90 12/23/91 35/24/92
f 32/43/93 9/44/94 14/45/95 37/46/96
s 4
f 28/51/97 5/52/98 65/53/99 66/54/100
s 1
f 48/157/37 47/156/36 19/159/39 42/160/42
f 50/143/10 49/142/9 5/145/101 28/146/102
s off
f 2/97/103 1/98/104 55/99/105 53/100/106
f 3/103/107 2/97/108 53/100/109 51/104/110
f 65/107/111 4/108/112 3/103/113 51/104/114
f 20/113/115 19/115/116 67/116/117 63/114/118
f 21/109/119 20/113/120 63/114/121 61/110/122
f 22/105/123 21/109/124 61/110/125 59/106/126
f 23/101/127 22/105/128 59/106/129 57/102/130
f 1/98/131 23/101/132 57/102/133 55/99/134
s 4
f 52/56/135 51/55/136 53/57/137 54/58/138
f 54/58/138 53/57/137 55/59/139 56/60/140
f 56/60/140 55/59/139 57/61/141 58/62/142
f 58/62/142 57/61/141 59/63/143 60/64/144
f 60/64/144 59/63/143 61/65/145 62/66/146
f 62/66/146 61/65/145 63/67/147 64/68/148
f 64/68/148 63/67/147 67/69/149 68/70/150
f 66/54/100 65/53/99 51/55/136 52/56/135
f 68/70/150 67/69/149 18/71/151 41/72/152
s off
f 43/119/153 64/120/154 68/121/155 42/122/156
f 44/123/157 62/124/158 64/120/159 43/119/160
f 45/127/161 60/128/162 62/124/163 44/123/164
f 46/129/165 58/130/166 60/128/167 45/127/168
f 24/131/169 56/132/170 58/130/171 46/129/172
f 25/133/173 54/134/174 56/132/175 24/131/176
f 26/135/177 52/136/178 54/134/179 25/133/180
f 27/137/181 66/138/182 52/136/183 26/135/184
f 49/111/185 4/108/186 65/107/187 5/112/188
f 27/137/189 50/139/190 28/140/191 66/138/192
f 48/125/193 42/122/194 68/121/195 41/126/196
f 19/115/197 47/117/198 18/118/199 67/116/200
