# File produced by Open Asset Import Library (http://www.assimp.sf.net)
# (assimp v3.1.243586452)

mtllib knife1.mtl

# vertex positions
v -0.002316 4.578501 0.106375
v -0.002316 3.360334 0.106375
v 4.180537 3.289771 0.125306
v 4.180537 4.649065 0.125306
v -0.002316 4.578501 -0.106375
v 4.180537 4.649065 -0.125306
v -0.002316 3.360334 -0.106375
v 4.180537 3.289771 -0.125306
v -6.315041 3.797023 -0.014188
v -6.315041 3.797023 0.014188
v -6.315041 4.141812 0.014188
v -6.315041 4.141812 -0.014188
v -3.015415 3.417849 -0.077584
v -3.015415 3.417849 0.077584
v -5.733739 3.585891 0.031563
v -5.733739 3.585891 -0.031563
v -3.015415 4.520987 0.077584
v -5.733739 4.352944 0.031563
v -3.015415 4.520987 -0.077584
v -5.733739 4.352944 -0.031563
v 3.806458 3.186681 0.166662
v 4.510700 3.186681 0.166662
v 4.510700 4.752153 0.166662
v 3.806458 4.752153 0.166662
v 4.510700 4.752153 -0.166662
v 3.806458 4.752153 -0.166662
v 4.510700 3.186681 -0.166662
v 3.806458 3.186681 -0.166662
v 4.496952 3.761114 -0.067682
v 4.496952 3.792225 -0.128738
v 9.194212 3.374696 -0.432090
v 9.194212 3.270281 -0.227163
v 4.496952 3.840679 -0.177193
v 9.194212 3.537327 -0.594720
v 4.496952 3.901735 -0.208303
v 9.194212 3.742254 -0.699136
v 4.496952 3.969417 -0.219023
v 9.194212 3.969417 -0.735115
v 4.496952 4.037099 -0.208303
v 9.194212 4.196580 -0.699136
v 4.496952 4.098155 -0.177193
v 9.194212 4.401507 -0.594720
v 4.496952 4.146610 -0.128738
v 9.194212 4.564137 -0.432089
v 4.496952 4.177720 -0.067682
v 9.194212 4.668553 -0.227163
v 4.496952 4.188439 0.000000
v 9.194212 4.704531 0.000000
v 4.496952 4.177720 0.067682
v 9.194212 4.668553 0.227163
v 4.496952 4.146610 0.128738
v 9.194212 4.564137 0.432089
v 4.496952 4.098155 0.177193
v 9.194212 4.401507 0.594720
v 4.496952 4.037099 0.208303
v 9.194212 4.196580 0.699135
v 4.496952 3.969417 0.219022
v 9.194212 3.969417 0.735114
v 4.496952 3.901735 0.208303
v 9.194212 3.742254 0.699135
v 4.496952 3.840679 0.177193
v 9.194212 3.537328 0.594720
v 4.496952 3.792225 0.128738
v 9.194212 3.374697 0.432089
v 4.496952 3.761114 0.067681
v 9.194212 3.270281 0.227163
v 4.496952 3.750394 0.000000
v 9.194212 3.234303 0.000000
v 4.496952 3.969417 0.000000
v 11.210365 3.592961 -0.122318
v 11.210365 3.649184 -0.232662
v 11.210365 3.969417 0.000000
v 11.210365 3.736755 -0.320232
v 11.210365 3.847101 -0.376455
v 11.210365 3.969417 -0.395828
v 11.210365 4.091735 -0.376455
v 11.210365 4.202079 -0.320232
v 11.210365 4.289649 -0.232662
v 11.210365 4.345872 -0.122318
v 11.210365 4.365245 0.000000
v 11.210365 4.345872 0.122317
v 11.210365 4.289649 0.232662
v 11.210365 4.202079 0.320231
v 11.210365 4.091735 0.376455
v 11.210365 3.969417 0.395828
v 11.210365 3.847099 0.376455
v 11.210365 3.736755 0.320231
v 11.210365 3.649185 0.232662
v 11.210365 3.592962 0.122317
v 11.210365 3.573589 0.000000

# UV coordinates
vt 0.225409 0.197870
vt 0.225409 0.032590
vt 0.313010 0.032590
vt 0.313010 0.197870
vt 0.225409 0.287170
vt 0.313010 0.287170
vt 0.225409 0.445455
vt 0.313010 0.445455
vt 0.225409 0.534404
vt 0.313010 0.534404
vt 0.420316 0.032590
vt 0.420316 0.197870
vt 0.097888 0.097098
vt 0.114038 0.097098
vt 0.114038 0.146240
vt 0.097888 0.146240
vt 0.052336 0.032590
vt 0.162280 0.032590
vt 0.114038 0.073468
vt 0.097888 0.073468
vt 0.162280 0.197870
vt 0.114038 0.169808
vt 0.052336 0.197870
vt 0.097888 0.169808
vt 0.162280 0.445455
vt 0.162280 0.534404
vt 0.162280 0.287170
vt 0.641536 0.024115
vt 0.778348 0.024115
vt 0.778348 0.160926
vt 0.641536 0.160926
vt 0.778348 0.297738
vt 0.641536 0.297738
vt 0.778348 0.434550
vt 0.641536 0.434550
vt 0.778348 0.571361
vt 0.641536 0.571361
vt 0.915160 0.024115
vt 0.915160 0.160926
vt 0.504725 0.024115
vt 0.504725 0.160926
vt 0.022269 0.582492
vt 0.034769 0.582492
vt 0.034769 0.958431
vt 0.022269 0.958431
vt 0.047269 0.582492
vt 0.047269 0.958431
vt 0.059769 0.582492
vt 0.059769 0.958431
vt 0.072269 0.582492
vt 0.072269 0.958431
vt 0.084769 0.582492
vt 0.084769 0.958431
vt 0.097269 0.582492
vt 0.097269 0.958431
vt 0.109769 0.582492
vt 0.109769 0.958431
vt 0.122269 0.582492
vt 0.122269 0.958431
vt 0.134769 0.582492
vt 0.134769 0.958431
vt 0.147269 0.582492
vt 0.147269 0.958431
vt 0.159769 0.582492
vt 0.159769 0.958431
vt 0.172269 0.582492
vt 0.172269 0.958431
vt 0.184769 0.582492
vt 0.184769 0.958431
vt 0.197269 0.582492
vt 0.197269 0.958431
vt 0.209769 0.582492
vt 0.209769 0.958431
vt 0.222269 0.582492
vt 0.222269 0.958431
vt 0.234769 0.582492
vt 0.234769 0.958431
vt 0.247269 0.582492
vt 0.247269 0.958431
vt 0.259769 0.582492
vt 0.259769 0.958431
vt 0.272269 0.582492
vt 0.272269 0.958431
vt 0.944302 0.739387
vt 0.966496 0.782945
vt 0.817893 0.824979
vt 0.909735 0.704820
vt 0.866177 0.682626
vt 0.817893 0.674979
vt 0.769609 0.682626
vt 0.726052 0.704820
vt 0.691484 0.739387
vt 0.669291 0.782945
vt 0.661643 0.831229
vt 0.669291 0.879513
vt 0.691484 0.923070
vt 0.726052 0.957638
vt 0.769609 0.979831
vt 0.817893 0.987479
vt 0.866177 0.979831
vt 0.909735 0.957638
vt 0.944302 0.923070
vt 0.966496 0.879513
vt 0.974143 0.831229
vt 0.529351 0.838159
vt 0.520834 0.851624
vt 0.482581 0.818002
vt 0.508572 0.861799
vt 0.493767 0.867687
vt 0.477867 0.868711
vt 0.462429 0.864772
vt 0.448963 0.856256
vt 0.438788 0.843994
vt 0.432900 0.829189
vt 0.431875 0.813288
vt 0.435813 0.797849
vt 0.444330 0.784381
vt 0.456591 0.774204
vt 0.471397 0.768315
vt 0.487298 0.767291
vt 0.502737 0.771232
vt 0.516202 0.779752
vt 0.526379 0.792013
vt 0.532267 0.806819
vt 0.533291 0.822720
vt 0.629318 0.871701
vt 0.605546 0.914416
vt 0.569738 0.947694
vt 0.525400 0.968279
vt 0.476873 0.974156
vt 0.428904 0.964751
vt 0.386189 0.940984
vt 0.352907 0.905181
vt 0.332317 0.860846
vt 0.326435 0.812318
vt 0.335836 0.764345
vt 0.359601 0.721623
vt 0.395407 0.688336
vt 0.439748 0.667742
vt 0.488285 0.661858
vt 0.536263 0.671267
vt 0.578983 0.695041
vt 0.612266 0.730852
vt 0.632852 0.775195
vt 0.638728 0.823728

# vertex normals
vn -0.006340 0.000000 0.999980
vn -0.004526 0.000000 0.999990
vn -0.017579 0.999845 0.000000
vn -0.016867 0.999858 0.000000
vn -0.006340 0.000000 -0.999980
vn -0.004526 0.000000 -0.999990
vn -0.017579 -0.999845 0.000000
vn -0.016867 -0.999858 0.000000
vn 1.000000 0.000000 0.000000
vn -1.000000 0.000000 0.000000
vn -0.030828 -0.999525 0.000000
vn -0.079346 -0.996847 0.000000
vn -0.012106 0.000000 0.999927
vn -0.017332 0.000000 0.999850
vn -0.030828 0.999525 0.000000
vn -0.079346 0.996847 0.000000
vn -0.012106 0.000000 -0.999927
vn -0.017332 0.000000 -0.999850
vn -0.341384 -0.939924 0.000000
vn -0.029878 0.000000 0.999554
vn -0.341385 0.939923 0.000000
vn -0.029878 0.000000 -0.999554
vn 0.000000 0.000000 1.000000
vn 0.000000 1.000000 0.000000
vn 0.000000 0.000000 -1.000000
vn 0.000000 -1.000000 0.000000
vn -0.109214 -0.945368 -0.307168
vn -0.109214 -0.804177 -0.584270
vn -0.016826 -0.808902 -0.587703
vn -0.016826 -0.950922 -0.308972
vn -0.109214 -0.584270 -0.804177
vn -0.016825 -0.587702 -0.808903
vn -0.109214 -0.307168 -0.945368
vn -0.016825 -0.308973 -0.950922
vn -0.109214 0.000000 -0.994018
vn -0.016826 0.000000 -0.999858
vn -0.109214 0.307169 -0.945367
vn -0.016825 0.308974 -0.950922
vn -0.109214 0.584270 -0.804177
vn -0.016825 0.587702 -0.808902
vn -0.109214 0.804178 -0.584269
vn -0.016825 0.808903 -0.587702
vn -0.109214 0.945368 -0.307168
vn -0.016825 0.950922 -0.308972
vn -0.109214 0.994018 0.000000
vn -0.016825 0.999858 0.000000
vn -0.109214 0.945368 0.307168
vn -0.016825 0.950922 0.308973
vn -0.109214 0.804177 0.584270
vn -0.016825 0.808902 0.587702
vn -0.109214 0.584270 0.804178
vn -0.016826 0.587702 0.808902
vn -0.109214 0.307169 0.945367
vn -0.016825 0.308973 0.950922
vn -0.109214 0.000000 0.994018
vn -0.016825 0.000000 0.999858
vn -0.109214 -0.307169 0.945367
vn -0.016825 -0.308973 0.950922
vn -0.109214 -0.584270 0.804177
vn -0.016825 -0.587702 0.808902
vn -0.109214 -0.804177 0.584270
vn -0.016825 -0.808902 0.587703
vn -0.109214 -0.945367 0.307169
vn -0.016825 -0.950922 0.308974
vn -0.109214 -0.994018 0.000002
vn -0.016825 -0.999858 0.000002
vn -1.000000 0.000000 -0.000002
vn -1.000000 0.000000 0.000002
vn 1.000000 0.000000 0.000003
vn 1.000000 0.000000 -0.000003
vn 1.000000 0.000000 0.000001
vn 1.000000 0.000000 -0.000001
vn 0.165950 -0.797799 -0.579636
vn 0.165950 -0.937870 -0.304729
vn 0.165950 -0.579633 -0.797801
vn 0.165951 -0.304732 -0.937869
vn 0.165950 0.000000 -0.986134
vn 0.165950 0.304732 -0.937869
vn 0.165950 0.579635 -0.797799
vn 0.165950 0.797800 -0.579635
vn 0.165950 0.937869 -0.304732
vn 0.165950 0.986134 0.000000
vn 0.165951 0.937869 0.304732
vn 0.165951 0.797799 0.579635
vn 0.165950 0.579635 0.797799
vn 0.165950 0.304732 0.937869
vn 0.165951 0.000000 0.986134
vn 0.165951 -0.304733 0.937869
vn 0.165950 -0.579635 0.797799
vn 0.165950 -0.797798 0.579636
vn 0.165950 -0.937869 0.304732
vn 0.165950 -0.986134 0.000001

# Mesh
g pCube50
usemtl initialShadingGroup
f 4/4/2 1/1/1 2/2/1
f 2/2/1 3/3/2 4/4/2
f 6/6/4 5/5/3 1/1/3
f 1/1/3 4/4/4 6/6/4
f 8/8/6 7/7/5 5/5/5
f 5/5/5 6/6/6 8/8/6
f 3/10/8 2/9/7 7/7/7
f 7/7/7 8/8/8 3/10/8
f 4/4/9 3/3/9 8/11/9
f 8/11/9 6/12/9 4/4/9
f 12/16/10 9/13/10 10/14/10
f 10/14/10 11/15/10 12/16/10
f 16/20/12 13/17/11 14/18/11
f 14/18/11 15/19/12 16/20/12
f 15/19/14 14/18/13 17/21/13
f 17/21/13 18/22/14 15/19/14
f 18/22/16 17/21/15 19/23/15
f 19/23/15 20/24/16 18/22/16
f 20/24/18 19/23/17 13/17/17
f 13/17/17 16/20/18 20/24/18
f 14/26/11 13/25/11 7/7/7
f 7/7/7 2/9/7 14/26/11
f 13/25/17 19/27/17 5/5/5
f 5/5/5 7/7/5 13/25/17
f 19/27/15 17/21/15 1/1/3
f 1/1/3 5/5/3 19/27/15
f 17/21/13 14/18/13 2/2/1
f 2/2/1 1/1/1 17/21/13
f 9/13/19 16/20/12 15/19/12
f 15/19/12 10/14/19 9/13/19
f 10/14/20 15/19/14 18/22/14
f 18/22/14 11/15/20 10/14/20
f 11/15/21 18/22/16 20/24/16
f 20/24/16 12/16/21 11/15/21
f 12/16/22 20/24/18 16/20/18
f 16/20/18 9/13/22 12/16/22

# Mesh
g pCube51
usemtl initialShadingGroup
f 24/31/23 21/28/23 22/29/23
f 22/29/23 23/30/23 24/31/23
f 26/33/24 24/31/24 23/30/24
f 23/30/24 25/32/24 26/33/24
f 28/35/25 26/33/25 25/32/25
f 25/32/25 27/34/25 28/35/25
f 21/37/26 28/35/26 27/34/26
f 27/34/26 22/36/26 21/37/26
f 23/30/9 22/29/9 27/38/9
f 27/38/9 25/39/9 23/30/9
f 26/41/10 28/40/10 21/28/10
f 21/28/10 24/31/10 26/41/10

# Mesh
g pCylinder4
usemtl initialShadingGroup
f 32/45/30 29/42/27 30/43/28
f 30/43/28 31/44/29 32/45/30
f 31/44/29 30/43/28 33/46/31
f 33/46/31 34/47/32 31/44/29
f 34/47/32 33/46/31 35/48/33
f 35/48/33 36/49/34 34/47/32
f 36/49/34 35/48/33 37/50/35
f 37/50/35 38/51/36 36/49/34
f 38/51/36 37/50/35 39/52/37
f 39/52/37 40/53/38 38/51/36
f 40/53/38 39/52/37 41/54/39
f 41/54/39 42/55/40 40/53/38
f 42/55/40 41/54/39 43/56/41
f 43/56/41 44/57/42 42/55/40
f 44/57/42 43/56/41 45/58/43
f 45/58/43 46/59/44 44/57/42
f 46/59/44 45/58/43 47/60/45
f 47/60/45 48/61/46 46/59/44
f 48/61/46 47/60/45 49/62/47
f 49/62/47 50/63/48 48/61/46
f 50/63/48 49/62/47 51/64/49
f 51/64/49 52/65/50 50/63/48
f 52/65/50 51/64/49 53/66/51
f 53/66/51 54/67/52 52/65/50
f 54/67/52 53/66/51 55/68/53
f 55/68/53 56/69/54 54/67/52
f 56/69/54 55/68/53 57/70/55
f 57/70/55 58/71/56 56/69/54
f 58/71/56 57/70/55 59/72/57
f 59/72/57 60/73/58 58/71/56
f 60/73/58 59/72/57 61/74/59
f 61/74/59 62/75/60 60/73/58
f 62/75/60 61/74/59 63/76/61
f 63/76/61 64/77/62 62/75/60
f 64/77/62 63/76/61 65/78/63
f 65/78/63 66/79/64 64/77/62
f 66/79/64 65/78/63 67/80/65
f 67/80/65 68/81/66 66/79/64
f 68/81/66 67/80/65 29/82/27
f 29/82/27 32/83/30 68/81/66
f 30/84/10 29/85/67 69/86/10
f 33/87/68 30/84/10 69/86/10
f 35/88/10 33/87/68 69/86/10
f 37/89/10 35/88/10 69/86/10
f 39/90/10 37/89/10 69/86/10
f 41/91/68 39/90/10 69/86/10
f 43/92/10 41/91/68 69/86/10
f 45/93/67 43/92/10 69/86/10
f 47/94/10 45/93/67 69/86/10
f 49/95/68 47/94/10 69/86/10
f 51/96/10 49/95/68 69/86/10
f 53/97/67 51/96/10 69/86/10
f 55/98/10 53/97/67 69/86/10
f 57/99/10 55/98/10 69/86/10
f 59/100/10 57/99/10 69/86/10
f 61/101/67 59/100/10 69/86/10
f 63/102/10 61/101/67 69/86/10
f 65/103/68 63/102/10 69/86/10
f 67/104/10 65/103/68 69/86/10
f 29/85/67 67/104/10 69/86/10
f 70/105/69 71/106/9 72/107/9
f 71/106/9 73/108/9 72/107/9
f 73/108/9 74/109/9 72/107/9
f 74/109/9 75/110/9 72/107/9
f 75/110/9 76/111/9 72/107/9
f 76/111/9 77/112/9 72/107/9
f 77/112/9 78/113/9 72/107/9
f 78/113/9 79/114/9 72/107/9
f 79/114/9 80/115/9 72/107/9
f 80/115/9 81/116/70 72/107/9
f 81/116/70 82/117/70 72/107/9
f 82/117/70 83/118/9 72/107/9
f 83/118/9 84/119/9 72/107/9
f 84/119/9 85/120/9 72/107/9
f 85/120/9 86/121/71 72/107/9
f 86/121/71 87/122/72 72/107/9
f 87/122/72 88/123/72 72/107/9
f 88/123/72 89/124/9 72/107/9
f 89/124/9 90/125/69 72/107/9
f 90/125/69 70/105/69 72/107/9
f 70/105/74 32/126/30 31/127/29
f 31/127/29 71/106/73 70/105/74
f 71/106/73 31/127/29 34/128/32
f 34/128/32 73/108/75 71/106/73
f 73/108/75 34/128/32 36/129/34
f 36/129/34 74/109/76 73/108/75
f 74/109/76 36/129/34 38/130/36
f 38/130/36 75/110/77 74/109/76
f 75/110/77 38/130/36 40/131/38
f 40/131/38 76/111/78 75/110/77
f 76/111/78 40/131/38 42/132/40
f 42/132/40 77/112/79 76/111/78
f 77/112/79 42/132/40 44/133/42
f 44/133/42 78/113/80 77/112/79
f 78/113/80 44/133/42 46/134/44
f 46/134/44 79/114/81 78/113/80
f 79/114/81 46/134/44 48/135/46
f 48/135/46 80/115/82 79/114/81
f 80/115/82 48/135/46 50/136/48
f 50/136/48 81/116/83 80/115/82
f 81/116/83 50/136/48 52/137/50
f 52/137/50 82/117/84 81/116/83
f 82/117/84 52/137/50 54/138/52
f 54/138/52 83/118/85 82/117/84
f 83/118/85 54/138/52 56/139/54
f 56/139/54 84/119/86 83/118/85
f 84/119/86 56/139/54 58/140/56
f 58/140/56 85/120/87 84/119/86
f 85/120/87 58/140/56 60/141/58
f 60/141/58 86/121/88 85/120/87
f 86/121/88 60/141/58 62/142/60
f 62/142/60 87/122/89 86/121/88
f 87/122/89 62/142/60 64/143/62
f 64/143/62 88/123/90 87/122/89
f 88/123/90 64/143/62 66/144/64
f 66/144/64 89/124/91 88/123/90
f 89/124/91 66/144/64 68/145/66
f 68/145/66 90/125/92 89/124/91
f 90/125/92 68/145/66 32/126/30
f 32/126/30 70/105/74 90/125/92
