# This file uses centimeters as units for non-parametric coordinates.

mtllib lettering.mtl
g default
v -6.923976 2.352353 0.500000
v 6.923976 2.352353 0.500000
v -6.923976 7.006159 0.500000
v 6.923976 7.006159 0.500000
v -5.636415 2.352353 0.500000
v -5.636415 7.006159 0.500000
v 5.731970 2.352353 0.500000
v 5.731970 7.006159 0.500000
v -6.923976 6.039248 0.500000
v -5.636415 6.039248 0.500000
v 5.731970 6.039248 0.500000
v 6.923976 6.039248 0.500000
v -6.923976 3.319889 0.500000
v -5.636415 3.319889 0.500000
v 5.731970 3.319889 0.500000
v 6.923976 3.319889 0.500000
v -7.045476 7.544051 -0.500000
v -7.045476 7.544051 0.500000
v 7.164919 7.544051 0.500000
v 7.164919 7.544051 -0.500000
v -7.045476 2.164990 0.500000
v -7.045476 2.164990 -0.500000
v 7.164919 2.164990 -0.500000
v 7.164919 2.164990 0.500000
v 8.654918 6.773582 0.500000
v 8.654918 6.773582 -0.500000
v 8.654918 7.544051 -0.500000
v 8.654918 7.544051 0.500000
v -8.654918 6.773582 -0.500000
v -8.654918 6.773582 0.500000
v -8.654918 7.544051 0.500000
v -8.654918 7.544051 -0.500000
v -8.654918 2.164990 -0.500000
v -8.654918 2.164990 0.500000
v 8.654918 2.164990 -0.500000
v 8.654918 2.164990 0.500000
v 8.654918 2.936242 0.500000
v 8.654918 2.936242 -0.500000
v -8.654918 2.936242 -0.500000
v -8.654918 2.936242 0.500000
v -6.923976 6.389779 2.365356
v -5.636415 6.389779 2.365356
v -5.636415 7.006159 2.365356
v -6.923976 7.006159 2.365356
v 5.731970 6.389779 2.365356
v 5.731970 7.006159 2.365356
v 6.923976 6.389779 2.365356
v 6.923976 7.006159 2.365356
v -6.923976 2.702883 2.365356
v -5.636415 2.702883 2.365356
v -5.636415 3.319889 2.365356
v -6.923976 3.319889 2.365356
v 5.731970 3.319889 2.365356
v 6.923976 3.319889 2.365356
v 5.731970 2.702883 2.365356
v 6.923976 2.702883 2.365356
v -6.475143 6.982582 -0.500000
v 6.584916 6.982582 -0.500000
v 6.584916 2.726459 -0.500000
v -6.475143 2.726459 -0.500000
v 7.954299 6.982582 -0.500000
v 7.954299 6.372956 -0.500000
v -7.954299 6.372956 -0.500000
v -7.954299 6.982582 -0.500000
v -7.954299 2.726459 -0.500000
v 7.954299 2.726459 -0.500000
v 7.954299 3.336704 -0.500000
v -7.954299 3.336704 -0.500000
v 5.267965 6.069276 -0.117365
v -5.180145 6.069276 -0.117365
v -5.180145 6.556980 -0.117365
v 5.267965 6.556980 -0.117365
v -6.363478 6.556980 -0.117365
v -6.363478 6.069276 -0.117365
v 6.363478 6.069276 -0.117365
v 6.363478 6.556980 -0.117365
v 6.363478 3.640260 -0.117365
v 5.267965 3.640260 -0.117365
v -5.180145 3.640260 -0.117365
v -6.363478 3.640260 -0.117365
v 5.267965 3.152061 -0.117365
v 6.363478 3.152061 -0.117365
v -5.180145 3.152061 -0.117365
v -6.363478 3.152061 -0.117365
v -6.475143 6.982582 -0.117365
v 6.584916 6.982582 -0.117365
v 6.584916 2.726459 -0.117365
v -6.475143 2.726459 -0.117365
v 7.954299 6.982582 -0.117365
v 7.954299 6.372956 -0.117365
v -7.954299 6.372956 -0.117365
v -7.954299 6.982582 -0.117365
v -7.954299 2.726459 -0.117365
v 7.954299 2.726459 -0.117365
v 7.954299 3.336704 -0.117365
v -7.954299 3.336704 -0.117365
vt 0.880887 0.218504
vt 0.927867 0.218504
vt 0.927867 0.254700
vt 0.880887 0.254700
vt 0.880887 0.038226
vt 0.927867 0.038226
vt 0.880887 0.001992
vt 0.927867 0.001992
vt 0.894491 0.474977
vt 0.941471 0.474977
vt 0.941471 0.511174
vt 0.894491 0.511174
vt 0.894491 0.294699
vt 0.941471 0.294699
vt 0.894491 0.258466
vt 0.941471 0.258466
vt 0.729472 0.753144
vt 0.774898 0.753144
vt 0.774898 0.840778
vt 0.745940 0.840778
vt 0.657407 0.906608
vt 0.611982 0.906608
vt 0.628450 0.818974
vt 0.657407 0.818974
vt 0.606194 0.906608
vt 0.560769 0.906608
vt 0.577237 0.818974
vt 0.606194 0.818974
vt 0.447767 0.818974
vt 0.493193 0.818974
vt 0.493193 0.906608
vt 0.464235 0.906608
vt 0.268459 0.818974
vt 0.313914 0.818974
vt 0.313914 0.906608
vt 0.284927 0.906608
vt 0.196394 0.906608
vt 0.150939 0.906608
vt 0.167407 0.818974
vt 0.196394 0.818974
vt 0.083363 0.906608
vt 0.037908 0.906608
vt 0.054376 0.818974
vt 0.083363 0.818974
vt 0.064573 0.910374
vt 0.110028 0.910374
vt 0.110028 0.998008
vt 0.081041 0.998008
vt 0.870727 0.953096
vt 0.870727 0.924456
vt 0.888703 0.924456
vt 0.888703 0.953096
vt 0.870727 0.781813
vt 0.888703 0.781813
vt 0.870727 0.753144
vt 0.888703 0.753144
vt 0.864939 0.924456
vt 0.864939 0.953096
vt 0.846963 0.953096
vt 0.846963 0.924456
vt 0.864939 0.781813
vt 0.846963 0.781813
vt 0.864939 0.753144
vt 0.846963 0.753144
vt 0.308278 0.739597
vt 0.261298 0.739597
vt 0.261298 0.071992
vt 0.308278 0.071992
vt 0.261298 0.815208
vt 0.308278 0.815208
vt 0.261298 0.001992
vt 0.308278 0.001992
vt 0.361596 0.739597
vt 0.314616 0.739597
vt 0.314616 0.071992
vt 0.361596 0.071992
vt 0.314616 0.815208
vt 0.361596 0.815208
vt 0.314616 0.001992
vt 0.361596 0.001992
vt 0.780686 0.753144
vt 0.841175 0.753144
vt 0.841175 0.840778
vt 0.780686 0.840778
vt 0.723685 0.840778
vt 0.663195 0.840778
vt 0.663195 0.753144
vt 0.723685 0.753144
vt 0.498980 0.818974
vt 0.554981 0.818974
vt 0.554981 0.906608
vt 0.498980 0.906608
vt 0.441979 0.906608
vt 0.385979 0.906608
vt 0.385979 0.818974
vt 0.441979 0.818974
vt 0.319702 0.818974
vt 0.380191 0.818974
vt 0.380191 0.906608
vt 0.319702 0.906608
vt 0.262671 0.906608
vt 0.202182 0.906608
vt 0.202182 0.818974
vt 0.262671 0.818974
vt 0.145151 0.906608
vt 0.089151 0.906608
vt 0.089151 0.818974
vt 0.145151 0.818974
vt 0.001879 0.910374
vt 0.057880 0.910374
vt 0.057880 0.998008
vt 0.001879 0.998008
vt 0.833085 0.679887
vt 0.833085 0.066326
vt 0.851061 0.066326
vt 0.851061 0.679887
vt 0.833085 0.001992
vt 0.851061 0.001992
vt 0.833085 0.749378
vt 0.851061 0.749378
vt 0.874962 0.066326
vt 0.874962 0.679887
vt 0.856986 0.679887
vt 0.856986 0.066326
vt 0.874962 0.749378
vt 0.856986 0.749378
vt 0.874962 0.001992
vt 0.856986 0.001992
vt 0.229317 0.673399
vt 0.183892 0.673399
vt 0.183892 0.139312
vt 0.229317 0.139312
vt 0.056136 0.673399
vt 0.056136 0.139312
vt 0.254588 0.071992
vt 0.254588 0.739597
vt 0.056136 0.733889
vt 0.183892 0.733889
vt 0.010682 0.673399
vt 0.010682 0.139312
vt 0.183892 0.083312
vt 0.056136 0.083312
vt 0.229317 0.083312
vt 0.254588 0.001992
vt 0.229317 0.733889
vt 0.254588 0.815208
vt 0.218391 0.815208
vt 0.038113 0.815208
vt 0.001879 0.739597
vt 0.001879 0.071992
vt 0.038113 0.001992
vt 0.218391 0.001992
vt 0.010682 0.733889
vt 0.001879 0.815208
vt 0.010682 0.083312
vt 0.001879 0.001992
vt 0.670075 0.128196
vt 0.670075 0.619048
vt 0.647163 0.619048
vt 0.647163 0.128196
vt 0.784190 0.128196
vt 0.784190 0.619048
vt 0.647163 0.674641
vt 0.670075 0.674641
vt 0.627168 0.679887
vt 0.627168 0.066326
vt 0.670075 0.076729
vt 0.647163 0.076729
vt 0.807126 0.619048
vt 0.807126 0.128196
vt 0.784190 0.674641
vt 0.784190 0.076729
vt 0.627168 0.749378
vt 0.655808 0.749378
vt 0.627168 0.001992
vt 0.655808 0.001992
vt 0.807126 0.674641
vt 0.807126 0.076729
vt 0.827121 0.066326
vt 0.827121 0.679887
vt 0.798451 0.749378
vt 0.798451 0.001992
vt 0.827121 0.749378
vt 0.827121 0.001992
vt 0.116053 0.970863
vt 0.116053 0.910373
vt 0.145010 0.910373
vt 0.145010 0.970863
vt 0.214875 0.966374
vt 0.185917 0.966374
vt 0.185917 0.910374
vt 0.214875 0.910374
vt 0.150985 0.970863
vt 0.150985 0.910374
vt 0.179972 0.910374
vt 0.179972 0.970863
vt 0.249837 0.910373
vt 0.249837 0.966374
vt 0.220850 0.966374
vt 0.220850 0.910373
vt 0.367933 0.739597
vt 0.367933 0.071992
vt 0.394311 0.099241
vt 0.394311 0.712802
vt 0.367933 0.001992
vt 0.394311 0.034907
vt 0.367933 0.815208
vt 0.394311 0.782293
vt 0.404130 0.001992
vt 0.422951 0.034907
vt 0.404130 0.815208
vt 0.422951 0.782293
vt 0.584408 0.001992
vt 0.565595 0.034907
vt 0.584408 0.815208
vt 0.565595 0.782293
vt 0.620642 0.001992
vt 0.594264 0.034907
vt 0.620642 0.815208
vt 0.594264 0.782293
vt 0.620642 0.071992
vt 0.594264 0.099241
vt 0.620642 0.739597
vt 0.594264 0.712802
vn 0.000000 0.000000 1.000000
vn 0.000000 0.000000 1.000000
vn 0.000000 0.000000 1.000000
vn 0.000000 0.000000 1.000000
vn 0.000000 1.000000 0.000000
vn 0.000000 1.000000 0.000000
vn 0.000000 1.000000 0.000000
vn 0.000000 1.000000 0.000000
vn 0.000000 0.000000 -1.000000
vn 0.000000 0.000000 -1.000000
vn 0.000000 0.000000 -1.000000
vn 0.000000 0.000000 -1.000000
vn 0.000000 -1.000000 0.000000
vn 0.000000 -1.000000 0.000000
vn 0.000000 -1.000000 0.000000
vn 0.000000 -1.000000 0.000000
vn 1.000000 0.000000 0.000000
vn 1.000000 0.000000 0.000000
vn 1.000000 0.000000 0.000000
vn 1.000000 0.000000 0.000000
vn -1.000000 0.000000 0.000000
vn -1.000000 0.000000 0.000000
vn -1.000000 0.000000 0.000000
vn -1.000000 0.000000 0.000000
vn 0.000000 -1.000000 0.000000
vn 0.000000 -1.000000 0.000000
vn 0.000000 0.000000 -1.000000
vn 0.000000 0.000000 -1.000000
vn 0.000000 1.000000 0.000000
vn 0.000000 1.000000 0.000000
vn 0.000000 0.000000 1.000000
vn 0.000000 0.000000 1.000000
vn 0.000000 0.000000 1.000000
vn 0.000000 0.000000 1.000000
vn 0.000000 0.000000 1.000000
vn 0.000000 0.000000 1.000000
vn 0.000000 0.000000 1.000000
vn 0.000000 0.000000 1.000000
vn 0.000000 1.000000 0.000000
vn 0.000000 1.000000 0.000000
vn 0.000000 0.000000 -1.000000
vn 0.000000 0.000000 -1.000000
vn 0.000000 -1.000000 0.000000
vn 0.000000 -1.000000 0.000000
vn 0.000000 0.000000 1.000000
vn 0.000000 0.000000 1.000000
vn 0.000000 0.000000 1.000000
vn 0.000000 0.000000 1.000000
vn 0.000000 0.000000 1.000000
vn 0.000000 0.000000 1.000000
vn 1.000000 0.000000 0.000000
vn 1.000000 0.000000 0.000000
vn 0.000000 0.000000 -1.000000
vn 0.000000 0.000000 -1.000000
vn 0.000000 0.000000 -1.000000
vn 0.000000 0.000000 -1.000000
vn -1.000000 0.000000 0.000000
vn -1.000000 0.000000 0.000000
vn 0.000000 0.000000 1.000000
vn 0.000000 0.000000 1.000000
vn 0.000000 0.000000 1.000000
vn 0.000000 0.000000 1.000000
vn 0.000000 0.000000 1.000000
vn 0.000000 0.000000 1.000000
vn 0.000000 0.000000 1.000000
vn 0.000000 0.000000 1.000000
vn 0.000000 0.000000 1.000000
vn 0.000000 0.000000 1.000000
vn 1.000000 0.000000 0.000000
vn 1.000000 0.000000 0.000000
vn 0.000000 0.000000 -1.000000
vn 0.000000 0.000000 -1.000000
vn 0.000000 0.000000 -1.000000
vn 0.000000 0.000000 -1.000000
vn -1.000000 0.000000 0.000000
vn -1.000000 0.000000 0.000000
vn 0.000000 0.000000 1.000000
vn 0.000000 0.000000 1.000000
vn 0.000000 0.000000 1.000000
vn 0.000000 0.000000 1.000000
vn 0.000000 0.000000 -1.000000
vn 0.000000 0.000000 -1.000000
vn 0.000000 0.000000 -1.000000
vn 0.000000 0.000000 -1.000000
vn 0.000000 0.000000 -1.000000
vn 0.000000 0.000000 -1.000000
vn 0.000000 0.000000 -1.000000
vn 0.000000 0.000000 -1.000000
vn 0.000000 0.000000 1.000000
vn 0.000000 0.000000 1.000000
vn 0.000000 0.000000 1.000000
vn 0.000000 0.000000 1.000000
vn -0.000000 0.000000 -1.000000
vn -0.000000 0.000000 -1.000000
vn -0.000000 0.000000 -1.000000
vn -0.000000 0.000000 -1.000000
vn 0.000000 0.000000 1.000000
vn 0.000000 0.000000 1.000000
vn 0.000000 0.000000 1.000000
vn 0.000000 0.000000 1.000000
vn 0.000000 0.000000 1.000000
vn 0.000000 0.000000 1.000000
vn 0.000000 0.000000 1.000000
vn 0.000000 0.000000 1.000000
vn 0.000000 0.000000 -1.000000
vn 0.000000 0.000000 -1.000000
vn 0.000000 0.000000 -1.000000
vn 0.000000 0.000000 -1.000000
vn 0.000000 0.000000 -1.000000
vn 0.000000 0.000000 -1.000000
vn 0.000000 0.000000 -1.000000
vn 0.000000 0.000000 -1.000000
vn 0.000000 0.000000 1.000000
vn 0.000000 0.000000 1.000000
vn 0.000000 0.000000 1.000000
vn 0.000000 0.000000 1.000000
vn 0.000000 0.000000 1.000000
vn 0.000000 0.000000 1.000000
vn 0.000000 0.000000 1.000000
vn 0.000000 0.000000 1.000000
vn 0.000000 0.000000 -1.000000
vn 0.000000 0.000000 -1.000000
vn 0.000000 0.000000 -1.000000
vn 0.000000 0.000000 -1.000000
vn 0.000000 0.000000 1.000000
vn 0.000000 0.000000 1.000000
vn 0.000000 0.000000 1.000000
vn 0.000000 0.000000 1.000000
vn 0.000000 0.000000 -1.000000
vn 0.000000 0.000000 -1.000000
vn 0.000000 0.000000 -1.000000
vn 0.000000 0.000000 -1.000000
vn 0.000000 0.000000 -1.000000
vn 0.000000 0.000000 -1.000000
vn 0.000000 0.000000 -1.000000
vn 0.000000 0.000000 -1.000000
vn 0.000000 0.000000 1.000000
vn 0.000000 0.000000 1.000000
vn 0.000000 0.000000 1.000000
vn 0.000000 0.000000 1.000000
vn 0.000000 0.000000 -1.000000
vn 0.000000 0.000000 -1.000000
vn 0.000000 0.000000 -1.000000
vn 0.000000 0.000000 -1.000000
vn 0.000000 0.000000 1.000000
vn 0.000000 0.000000 1.000000
vn 0.000000 0.000000 1.000000
vn 0.000000 0.000000 1.000000
vn 0.000000 0.000000 1.000000
vn 0.000000 0.000000 1.000000
vn 0.000000 0.000000 1.000000
vn 0.000000 0.000000 1.000000
vn -0.000000 0.000000 -1.000000
vn -0.000000 0.000000 -1.000000
vn -0.000000 0.000000 -1.000000
vn -0.000000 0.000000 -1.000000
vn 0.000000 0.000000 -1.000000
vn 0.000000 0.000000 -1.000000
vn 0.000000 0.000000 -1.000000
vn 0.000000 0.000000 -1.000000
vn 0.000000 0.000000 1.000000
vn 0.000000 0.000000 1.000000
vn 0.000000 0.000000 1.000000
vn 0.000000 0.000000 1.000000
vn 0.000000 0.000000 1.000000
vn 0.000000 0.000000 1.000000
vn 0.000000 0.000000 1.000000
vn 0.000000 0.000000 1.000000
vn -0.000000 0.000000 -1.000000
vn -0.000000 0.000000 -1.000000
vn -0.000000 0.000000 -1.000000
vn -0.000000 0.000000 -1.000000
vn 0.000000 -0.982798 0.184683
vn 0.000000 -0.982798 0.184683
vn 0.000000 -0.982798 0.184683
vn 0.000000 -0.982798 0.184683
vn 1.000000 0.000000 0.000000
vn 1.000000 0.000000 0.000000
vn 1.000000 0.000000 0.000000
vn 1.000000 0.000000 0.000000
vn 0.000000 1.000000 0.000000
vn 0.000000 1.000000 0.000000
vn 0.000000 1.000000 0.000000
vn 0.000000 1.000000 0.000000
vn -1.000000 0.000000 0.000000
vn -1.000000 0.000000 0.000000
vn -1.000000 0.000000 0.000000
vn -1.000000 0.000000 0.000000
vn -1.000000 0.000000 0.000000
vn -1.000000 0.000000 0.000000
vn -1.000000 0.000000 0.000000
vn -1.000000 0.000000 0.000000
vn 0.000000 -0.982798 0.184683
vn 0.000000 -0.982798 0.184683
vn 0.000000 -0.982798 0.184683
vn 0.000000 -0.982798 0.184683
vn 1.000000 0.000000 0.000000
vn 1.000000 0.000000 0.000000
vn 1.000000 0.000000 0.000000
vn 1.000000 0.000000 0.000000
vn 0.000000 1.000000 0.000000
vn 0.000000 1.000000 0.000000
vn 0.000000 1.000000 0.000000
vn 0.000000 1.000000 0.000000
vn 0.000000 -0.982798 0.184683
vn 0.000000 -0.982798 0.184683
vn 0.000000 -0.982798 0.184683
vn 0.000000 -0.982798 0.184683
vn 1.000000 0.000000 0.000000
vn 1.000000 0.000000 0.000000
vn 1.000000 0.000000 0.000000
vn 1.000000 0.000000 0.000000
vn -0.000000 1.000000 0.000000
vn -0.000000 1.000000 0.000000
vn -0.000000 1.000000 0.000000
vn -0.000000 1.000000 0.000000
vn -1.000000 0.000000 0.000000
vn -1.000000 0.000000 0.000000
vn -1.000000 0.000000 0.000000
vn -1.000000 0.000000 0.000000
vn 0.000000 1.000000 0.000000
vn 0.000000 1.000000 0.000000
vn 0.000000 1.000000 0.000000
vn 0.000000 1.000000 0.000000
vn -1.000000 0.000000 0.000000
vn -1.000000 0.000000 0.000000
vn -1.000000 0.000000 0.000000
vn -1.000000 0.000000 0.000000
vn 0.000000 -0.982798 0.184683
vn 0.000000 -0.982798 0.184683
vn 0.000000 -0.982798 0.184683
vn 0.000000 -0.982798 0.184683
vn 1.000000 0.000000 0.000000
vn 1.000000 0.000000 0.000000
vn 1.000000 0.000000 0.000000
vn 1.000000 0.000000 0.000000
vn 0.000000 0.000000 -1.000000
vn 0.000000 0.000000 -1.000000
vn 0.000000 0.000000 -1.000000
vn 0.000000 0.000000 -1.000000
vn 0.000000 0.000000 -1.000000
vn 0.000000 0.000000 -1.000000
vn 0.000000 0.000000 -1.000000
vn 0.000000 0.000000 -1.000000
vn 0.000000 0.000000 -1.000000
vn 0.000000 0.000000 -1.000000
vn 0.000000 0.000000 -1.000000
vn 0.000000 0.000000 -1.000000
vn 0.000000 0.000000 -1.000000
vn 0.000000 0.000000 -1.000000
vn 0.000000 0.000000 -1.000000
vn 0.000000 0.000000 -1.000000
vn 0.000000 0.000000 -1.000000
vn 0.000000 0.000000 -1.000000
vn 0.000000 0.000000 -1.000000
vn 0.000000 0.000000 -1.000000
vn 0.000000 0.000000 -1.000000
vn 0.000000 0.000000 -1.000000
vn 0.000000 0.000000 -1.000000
vn 0.000000 0.000000 -1.000000
vn 0.000000 0.000000 -1.000000
vn 0.000000 0.000000 -1.000000
vn 0.000000 0.000000 -1.000000
vn 0.000000 0.000000 -1.000000
vn 0.000000 0.000000 -1.000000
vn 0.000000 0.000000 -1.000000
vn 0.000000 0.000000 -1.000000
vn 0.000000 0.000000 -1.000000
vn 0.000000 0.000000 -1.000000
vn 0.000000 0.000000 -1.000000
vn 0.000000 0.000000 -1.000000
vn 0.000000 0.000000 -1.000000
vn 0.000000 0.000000 -1.000000
vn 0.000000 0.000000 -1.000000
vn 0.000000 0.000000 -1.000000
vn 0.000000 0.000000 -1.000000
vn 0.000000 0.000000 -1.000000
vn 0.000000 0.000000 -1.000000
vn 0.000000 0.000000 -1.000000
vn 0.000000 0.000000 -1.000000
vn 0.000000 0.000000 -1.000000
vn 0.000000 0.000000 -1.000000
vn 0.000000 0.000000 -1.000000
vn 0.000000 0.000000 -1.000000
vn 0.000000 -1.000000 0.000000
vn 0.000000 -1.000000 0.000000
vn 0.000000 -1.000000 0.000000
vn 0.000000 -1.000000 0.000000
vn 0.000000 1.000000 0.000000
vn 0.000000 1.000000 0.000000
vn 0.000000 1.000000 0.000000
vn 0.000000 1.000000 0.000000
vn -1.000000 0.000000 0.000000
vn -1.000000 0.000000 0.000000
vn -1.000000 0.000000 0.000000
vn -1.000000 0.000000 0.000000
vn 1.000000 0.000000 0.000000
vn 1.000000 0.000000 0.000000
vn 1.000000 0.000000 0.000000
vn 1.000000 0.000000 0.000000
vn 0.000000 1.000000 0.000000
vn 0.000000 1.000000 0.000000
vn 0.000000 1.000000 0.000000
vn 0.000000 1.000000 0.000000
vn 0.000000 -1.000000 0.000000
vn 0.000000 -1.000000 0.000000
vn 0.000000 -1.000000 0.000000
vn 0.000000 -1.000000 0.000000
vn 0.000000 -1.000000 0.000000
vn 0.000000 -1.000000 0.000000
vn 0.000000 -1.000000 0.000000
vn 0.000000 -1.000000 0.000000
vn 0.000000 1.000000 0.000000
vn 0.000000 1.000000 0.000000
vn 0.000000 1.000000 0.000000
vn 0.000000 1.000000 0.000000
vn -1.000000 0.000000 0.000000
vn -1.000000 0.000000 0.000000
vn -1.000000 0.000000 0.000000
vn -1.000000 0.000000 0.000000
vn 1.000000 0.000000 0.000000
vn 1.000000 0.000000 0.000000
vn 1.000000 0.000000 0.000000
vn 1.000000 0.000000 0.000000
vn -1.000000 0.000000 0.000000
vn -1.000000 0.000000 0.000000
vn -1.000000 0.000000 0.000000
vn -1.000000 0.000000 0.000000
vn 1.000000 0.000000 0.000000
vn 1.000000 0.000000 0.000000
vn 1.000000 0.000000 0.000000
vn 1.000000 0.000000 0.000000
s 1
g lettering
usemtl initialShadingGroup
f 6/129/1 10/130/2 11/131/3 8/132/4
s 2
f 17/65/5 18/66/6 19/67/7 20/68/8
s 3
f 69/157/9 70/158/10 71/159/11 72/160/12
s 4
f 21/73/13 22/74/14 23/75/15 24/76/16
s 5
f 25/1/17 26/2/18 27/3/19 28/4/20
s 6
f 29/9/21 30/10/22 31/11/23 32/12/24
s 4
f 33/77/25 22/74/14 21/73/13 34/78/26
s 3
f 73/163/27 71/159/11 70/158/10 74/164/28
s 2
f 31/69/29 18/66/6 17/65/5 32/70/30
s off
f 41/185/31 42/186/32 43/187/33 44/188/34
f 46/189/35 45/190/36 47/191/37 48/192/38
s 2
f 20/68/8 19/67/7 28/71/39 27/72/40
s 3
f 75/167/41 69/157/9 72/160/12 76/168/42
s 4
f 24/76/16 23/75/15 35/79/43 36/80/44
s 1
f 13/137/45 14/133/46 10/130/2 9/138/47
f 11/131/3 10/130/2 14/133/46 15/134/48
f 12/141/49 11/131/3 15/134/48 16/142/50
s 5
f 37/5/51 38/6/52 26/2/18 25/1/17
s 3
f 77/172/53 78/161/54 69/157/9 75/167/41
f 78/161/54 79/162/55 70/158/10 69/157/9
f 74/164/28 70/158/10 79/162/55 80/171/56
s 6
f 39/13/57 40/14/58 30/10/22 29/9/21
s off
f 49/193/59 50/194/60 51/195/61 52/196/62
s 1
f 15/134/48 14/133/46 5/139/63 7/140/64
s off
f 54/197/65 53/198/66 55/199/67 56/200/68
s 5
f 36/7/69 35/8/70 38/6/52 37/5/51
s 3
f 81/170/71 78/161/54 77/172/53 82/178/72
f 83/169/73 79/162/55 78/161/54 81/170/71
f 80/171/56 79/162/55 83/169/73 84/177/74
s 6
f 33/15/75 34/16/76 40/14/58 39/13/57
s off
f 6/129/77 8/132/78 19/135/79 18/136/80
f 72/160/81 71/159/82 85/165/83 86/166/84
f 83/169/85 81/170/86 87/179/87 88/180/88
f 7/140/89 5/139/90 21/149/91 24/150/92
f 75/167/93 76/168/94 89/175/95 90/176/96
f 4/143/97 12/141/98 25/152/99 28/144/100
f 9/138/101 3/145/102 31/146/103 30/147/104
f 73/163/105 74/164/106 91/174/107 92/173/108
f 84/177/109 83/169/110 88/180/111 93/183/112
f 5/139/113 1/153/114 34/154/115 21/149/116
f 3/145/117 6/129/118 18/136/119 31/146/120
f 71/159/121 73/163/122 92/173/123 85/165/124
f 8/132/125 4/143/126 28/144/127 19/135/128
f 76/168/129 72/160/130 86/166/131 89/175/132
f 81/170/133 82/178/134 94/184/135 87/179/136
f 2/155/137 7/140/138 24/150/139 36/156/140
f 77/172/141 75/167/142 90/176/143 95/182/144
f 12/141/145 16/142/146 37/151/147 25/152/148
f 13/137/149 9/138/150 30/147/151 40/148/152
f 74/164/153 80/171/154 96/181/155 91/174/156
f 82/178/157 77/172/158 95/182/159 94/184/160
f 16/142/161 2/155/162 36/156/163 37/151/164
f 1/153/165 13/137/166 40/148/167 34/154/168
f 80/171/169 84/177/170 93/183/171 96/181/172
f 9/81/173 10/82/174 42/83/175 41/84/176
f 10/17/177 6/18/178 43/19/179 42/20/180
f 6/85/181 3/86/182 44/87/183 43/88/184
f 3/21/185 9/22/186 41/23/187 44/24/188
f 8/25/189 11/26/190 45/27/191 46/28/192
f 11/89/193 12/90/194 47/91/195 45/92/196
f 12/29/197 4/30/198 48/31/199 47/32/200
f 4/93/201 8/94/202 46/95/203 48/96/204
f 1/97/205 5/98/206 50/99/207 49/100/208
f 5/33/209 14/34/210 51/35/211 50/36/212
f 14/101/213 13/102/214 52/103/215 51/104/216
f 13/37/217 1/38/218 49/39/219 52/40/220
f 16/105/221 15/106/222 53/107/223 54/108/224
f 15/41/225 7/42/226 55/43/227 53/44/228
f 7/109/229 2/110/230 56/111/231 55/112/232
f 2/45/233 16/46/234 54/47/235 56/48/236
f 17/201/237 20/202/238 58/203/239 57/204/240
f 23/221/241 22/223/242 60/224/243 59/222/244
f 27/205/245 26/209/246 62/210/247 61/206/248
f 29/211/249 32/207/250 64/208/251 63/212/252
f 22/223/253 33/219/254 65/220/255 60/224/256
f 32/207/257 17/201/258 57/204/259 64/208/260
f 20/202/261 27/205/262 61/206/263 58/203/264
f 35/217/265 23/221/266 59/222/267 66/218/268
f 26/209/269 38/213/270 67/214/271 62/210/272
f 39/215/273 29/211/274 63/212/275 68/216/276
f 38/213/277 35/217/278 66/218/279 67/214/280
f 33/219/281 39/215/282 68/216/283 65/220/284
f 57/113/285 58/114/286 86/115/287 85/116/288
f 59/121/289 60/122/290 88/123/291 87/124/292
f 61/49/293 62/50/294 90/51/295 89/52/296
f 63/57/297 64/58/298 92/59/299 91/60/300
f 60/122/301 65/125/302 93/126/303 88/123/304
f 64/119/305 57/113/306 85/116/307 92/120/308
f 58/114/309 61/117/310 89/118/311 86/115/312
f 66/127/313 59/121/314 87/124/315 94/128/316
f 62/50/317 67/53/318 95/54/319 90/51/320
f 68/61/321 63/57/322 91/60/323 96/62/324
f 67/53/325 66/55/326 94/56/327 95/54/328
f 65/63/329 68/61/330 96/62/331 93/64/332
